P2
160 106
255
49 59 44 24 27 62 72 75 97 96 155 94 96 141 74 80 75 237 239 241 183 121 91 108 111 108 121 72 62 41 70 68 54 34 95 94 46 52 97 73 66 60 84 58 69 100 78 76 127 90 92 121 78 70 32 60 64 41 80 34 48 22 38 31 33 27 54 34 59 38 44 27 28 37 19 28 36 23 23 55 15 55 19 28 39 24 21 29 21 30 26 27 34 36 33 32 33 38 31 32 31 24 26 30 24 29 44 31 25 25 18 20 17 24 38 20 21 24 26 40 31 35 52 24 39 43 55 65 50 42 21 40 16 21 23 31 22 16 18 54 39 8 51 44 22 59 35 20 18 19 21 31 40 15 28 38 46 41 34 93 68 43 76 77 80 81 87 81 80 108 119 127 153 85 79 83 172 154 109 118 105 209 137 128 142 99 90 63 59 43 87 66 74 71 78 94 80 43 97 80 65 62 56 57 96 87 87 56 67 126 125 89 120 96 49 33 39 50 34 48 26 39 30 44 44 42 77 44 47 36 41 33 69 65 17 29 33 29 36 10 30 18 49 24 30 30 26 26 27 26 21 26 34 31 23 21 28 32 19 25 32 21 20 28 23 17 33 21 22 31 30 35 32 36 45 30 48 51 23 23 21 23 44 37 51 37 54 16 42 41 29 34 50 33 40 40 24 28 36 13 16 29 29 51 53 22 19 23 23 25 30 33 25 18 33 26 20 44 34 32 116 100 79 78 94 104 96 89 122 110 80 119 187 125 120 151 179 110 168 176 186 182 196 156 148 121 70 68 42 89 61 52 82 52 85 91 101 53 65 102 102 108 98 71 96 106 54 66 70 94 61 82 48 62 39 35 37 38 26 40 36 51 38 56 38 31 26 37 34 40 16 26 71 30 28 30 32 33 17 34 20 37 30 20 35 23 29 30 22 24 31 25 31 35 29 29 22 15 30 36 26 19 23 26 24 29 18 25 25 52 22 28 45 33 53 39 37 57 12 66 44 37 39 61 53 49 34 39 25 32 34 39 49 49 58 56 25 29 47 24 22 30 29 46 52 39 24 38 36 35 18 16 37 33 63 43 25 49 42 24 120 156 97 92 94 115 131 146 122 92 94 114 198 154 162 101 190 182 131 151 194 167 150 176 217 218 72 113 107 132 58 77 57 47 73 105 94 77 76 52 42 32 57 63 98 79 78 87 67 74 69 37 30 12 44 59 66 52 54 56 62 33 25 22 19 34 30 48 18 14 56 79 40 34 36 27 20 25 28 17 21 22 25 28 38 24 21 29 27 24 21 28 23 33 31 17 47 32 21 15 22 29 27 22 23 23 33 30 39 35 54 40 24 35 54 37 27 48 44 37 34 32 29 34 41 33 29 36 47 38 52 54 34 34 39 35 22 42 49 50 38 11 33 52 19 30 45 22 32 32 46 32 37 36 55 52 36 44 64 59 73 193 154 65 116 109 108 118 112 110 93 140 191 116 187 165 159 195 124 141 119 55 151 145 135 139 67 141 117 105 51 125 88 70 73 97 68 64 61 57 54 46 73 42 88 59 59 68 53 82 39 35 56 67 62 41 17 45 35 32 48 33 43 40 43 25 33 35 27 51 46 23 22 29 26 39 40 21 41 28 29 38 31 26 27 28 23 35 28 25 20 41 26 10 32 34 20 34 24 22 29 29 23 25 36 14 26 37 59 21 34 31 34 41 58 31 21 44 51 24 45 37 35 17 25 23 37 28 33 24 30 48 31 42 30 33 64 48 24 55 88 39 19 30 56 42 49 58 24 35 49 34 52 53 33 36 55 54 42 40 174 135 188 126 103 86 84 101 98 138 166 177 130 159 193 158 130 159 63 109 96 72 155 163 52 111 186 75 91 125 108 91 60 45 46 69 83 76 50 58 41 59 50 63 87 55 63 75 96 81 14 61 45 50 19 23 50 52 23 28 25 38 29 35 25 33 31 39 30 27 32 35 40 21 36 26 19 29 36 22 51 31 22 22 29 45 37 44 29 48 27 20 41 23 10 35 18 26 32 36 32 25 23 31 40 59 31 26 31 27 23 45 65 45 56 32 29 41 13 12 38 25 43 38 39 19 14 9 32 45 17 33 22 49 35 23 38 24 41 48 38 35 59 35 42 46 41 38 36 66 44 57 41 29 55 50 27 32 42 34 169 90 151 117 128 112 143 100 76 149 112 181 169 174 118 61 88 175 78 117 239 119 58 126 135 106 63 97 127 74 58 66 49 59 46 36 68 76 55 41 52 75 39 116 79 63 88 64 68 73 18 33 25 30 51 31 23 29 13 48 37 46 27 40 37 29 31 31 25 34 49 33 21 35 23 26 35 32 24 41 31 36 32 28 24 35 24 34 31 39 56 20 23 37 16 27 40 29 25 23 25 28 30 28 26 24 27 32 21 42 28 30 27 34 37 38 50 39 21 31 50 49 40 31 44 52 40 25 35 34 21 50 24 34 42 43 35 51 45 34 24 37 45 17 57 37 17 49 56 44 51 28 36 42 29 24 36 40 22 18 139 128 217 170 104 120 87 130 100 98 108 150 236 209 174 155 131 162 104 185 95 43 89 93 172 111 146 110 21 55 34 94 54 56 54 44 61 78 76 21 67 49 70 93 45 80 62 52 59 52 48 33 31 18 33 45 26 43 37 58 52 32 30 25 30 34 20 35 40 11 13 23 35 21 34 31 30 39 15 34 39 44 42 29 25 30 22 24 24 13 53 50 24 27 35 27 25 32 18 14 26 33 27 21 22 29 49 42 27 32 32 33 43 34 24 38 47 19 54 49 63 33 44 42 36 36 43 42 40 40 33 59 34 18 19 32 30 29 30 47 24 15 27 26 42 18 32 54 48 27 11 43 43 29 19 23 20 12 29 40 68 84 176 107 113 123 71 110 109 157 92 124 140 54 64 28 140 196 151 106 97 79 48 73 202 121 118 72 55 63 75 70 33 40 42 40 42 45 75 33 67 46 106 68 50 67 15 38 61 13 28 34 34 35 13 44 28 43 32 34 41 21 51 28 30 27 38 21 27 58 65 20 18 31 16 22 18 3 19 51 40 19 29 22 37 46 40 32 30 26 18 36 56 39 22 22 17 22 21 23 28 25 18 20 27 28 27 19 31 34 38 25 23 39 25 29 32 6 33 31 30 23 32 22 24 17 42 28 9 30 12 11 18 29 29 30 31 38 23 50 39 41 52 58 35 28 19 49 8 42 36 46 47 19 24 31 18 11 35 52 87 103 150 129 97 74 106 108 78 76 71 56 57 90 126 59 105 132 174 112 94 92 94 151 83 63 48 68 47 45 56 55 44 36 26 25 38 29 77 73 42 81 68 59 73 56 62 56 27 23 25 29 22 32 31 36 24 39 31 38 51 42 76 49 44 58 40 41 48 27 34 29 31 35 17 23 30 31 70 49 12 32 44 27 27 17 20 32 55 31 30 10 48 52 22 36 22 14 26 30 21 15 20 24 22 19 15 25 27 16 23 34 30 21 21 22 38 36 11 33 14 23 25 27 67 28 24 9 29 26 45 36 30 31 26 26 34 26 10 33 21 28 20 36 25 31 46 42 27 53 37 16 21 28 33 33 46 52 33 46 107 76 148 107 116 65 79 78 58 76 67 71 58 51 49 41 57 83 68 86 84 104 99 194 104 43 56 29 44 53 32 50 49 39 33 35 27 36 54 119 75 78 66 97 59 51 75 31 29 33 22 23 27 29 42 48 35 56 43 37 39 7 65 108 40 30 33 34 29 22 20 25 31 28 24 25 23 41 24 18 18 23 39 23 21 29 27 26 18 43 52 39 35 40 35 37 39 36 32 34 21 25 16 24 26 23 16 14 31 24 18 13 28 27 38 36 30 45 29 47 10 19 45 26 40 49 31 39 33 37 38 27 18 47 20 22 12 15 19 20 25 24 16 44 18 23 59 47 36 33 22 31 32 37 38 45 45 44 41 39 92 72 157 78 58 90 80 70 81 55 63 68 59 43 47 55 41 58 94 66 113 73 24 120 44 54 53 41 36 52 47 32 43 35 18 39 43 66 62 61 115 83 89 43 12 59 62 8 29 22 28 25 47 45 48 33 44 52 56 22 12 44 78 83 32 25 35 26 28 14 30 25 28 24 26 31 20 23 11 18 24 12 27 42 15 25 24 31 35 16 37 42 44 41 32 28 20 17 54 51 30 25 20 13 29 24 23 16 21 15 22 25 37 24 33 31 12 52 56 39 33 36 36 34 31 36 33 18 17 19 28 19 20 28 20 30 37 29 43 11 16 20 25 35 57 42 51 18 33 40 13 27 33 26 27 31 26 30 34 25 71 78 143 74 85 91 90 69 74 76 89 63 53 52 42 63 83 44 60 94 57 37 85 57 70 84 72 69 66 41 37 55 46 33 46 62 54 41 54 47 51 65 28 48 91 55 20 32 27 16 28 34 24 11 46 49 10 29 28 18 47 82 22 5 29 21 33 32 30 26 37 29 18 39 32 28 14 16 20 27 19 25 8 36 21 24 23 4 35 21 26 25 30 32 33 31 11 33 40 13 13 28 47 23 15 16 26 23 21 13 22 18 17 17 21 21 18 37 27 10 26 37 21 20 21 29 37 23 13 22 22 21 17 23 16 35 41 40 38 26 39 44 53 36 23 20 13 35 22 26 31 2 26 18 19 21 12 14 30 31 82 123 105 58 71 47 64 78 79 86 59 52 73 75 76 88 73 64 27 82 96 72 154 190 82 85 50 58 62 73 65 30 40 55 67 47 43 50 59 63 59 39 69 53 23 13 23 38 21 29 7 39 44 36 5 29 36 16 55 57 31 28 17 24 18 26 27 39 21 36 25 32 17 10 29 52 45 26 21 24 11 10 34 9 36 22 25 28 24 36 24 13 20 21 29 36 21 20 14 24 32 6 14 30 33 23 34 32 33 25 31 20 12 16 18 11 29 16 5 30 23 29 33 28 34 18 9 30 18 8 2 28 25 57 31 36 12 23 27 49 34 30 28 29 13 22 34 29 20 20 21 24 31 22 19 22 13 17 36 40 91 151 98 98 79 101 76 68 59 46 62 66 56 67 65 43 48 57 68 94 70 46 37 55 37 44 51 47 55 40 67 120 81 66 30 50 67 64 69 72 59 50 33 33 39 36 27 25 27 13 45 42 3 36 37 41 38 47 41 23 23 17 27 30 29 30 20 28 12 25 11 29 29 26 21 19 22 26 50 59 47 17 23 9 33 12 13 13 25 27 21 22 32 22 16 28 27 29 9 20 27 24 20 27 11 20 19 9 13 12 22 18 18 33 32 11 14 4 13 42 20 40 28 21 30 23 23 35 14 35 10 19 5 35 23 30 13 10 20 24 6 22 13 11 26 27 26 7 13 16 7 17 15 27 18 25 26 27 35 25 120 124 73 74 51 73 56 50 62 80 70 93 79 50 52 56 68 51 62 59 60 59 45 46 61 46 47 52 46 59 77 58 37 41 67 56 56 76 45 25 23 18 10 23 24 16 23 22 22 24 36 22 19 33 40 26 32 18 32 18 20 23 34 16 15 17 18 18 26 19 19 20 30 14 22 27 28 12 13 11 11 31 18 15 14 19 18 26 19 20 19 19 30 25 15 21 20 16 29 29 10 27 17 16 18 31 25 13 21 20 29 28 33 36 25 22 15 20 12 9 30 46 9 18 17 24 47 29 16 16 14 19 25 27 27 8 7 36 17 6 30 30 31 23 27 26 23 33 24 24 34 25 26 21 20 35 30 17 20 18 149 50 40 36 45 39 52 57 70 56 44 35 47 63 55 45 60 55 54 68 75 57 54 44 34 66 34 46 80 63 38 55 72 61 60 40 62 40 14 28 29 27 23 32 25 19 34 28 4 17 16 45 77 31 15 16 24 13 32 33 21 19 22 16 24 11 20 18 32 19 24 16 22 27 21 9 23 26 31 26 35 13 52 12 16 39 37 87 7 19 23 13 15 23 23 22 16 13 32 21 6 21 18 13 28 22 22 15 21 15 21 16 18 21 9 26 30 37 14 19 48 26 14 39 24 7 17 9 22 8 14 11 17 14 30 17 40 50 29 31 56 16 18 46 36 18 31 20 16 13 22 43 32 16 19 35 24 11 26 34 64 30 53 43 49 66 54 51 35 26 31 24 29 27 25 43 39 42 49 39 43 67 52 54 56 57 63 80 34 26 63 49 44 43 25 46 55 14 36 17 23 26 31 22 19 17 14 19 25 33 23 32 30 16 20 30 19 21 13 26 17 20 22 27 14 21 23 20 13 11 15 19 20 26 24 13 26 21 16 11 35 43 13 29 41 38 32 14 18 8 30 22 13 19 22 25 18 24 20 14 29 23 23 13 18 18 24 18 18 8 17 15 18 25 18 21 15 13 10 53 17 10 10 13 17 12 12 20 17 27 30 26 15 18 21 12 37 24 35 38 37 29 16 39 11 38 3 24 23 29 40 12 25 21 13 20 17 26 57 50 41 49 64 62 54 47 26 19 37 32 37 38 33 32 37 38 33 26 43 30 46 53 46 63 47 50 54 49 65 41 48 31 36 33 36 56 26 19 17 20 28 21 16 20 14 23 17 28 31 33 25 25 19 15 15 12 21 11 16 31 19 12 25 18 17 16 17 16 23 7 21 21 18 12 33 20 6 24 27 14 17 43 18 31 39 12 15 33 19 13 20 19 16 15 12 21 16 24 41 35 17 26 23 10 31 32 13 26 26 26 21 35 28 24 24 26 45 24 26 24 15 19 25 10 21 33 24 28 31 35 12 44 1 6 32 32 18 40 45 18 25 32 10 17 25 12 20 19 17 65 16 2 22 27 32 35 22 38 54 32 73 53 47 27 19 31 36 32 32 23 25 28 32 32 30 28 26 36 44 33 40 46 48 64 57 63 57 36 45 50 34 40 45 20 51 34 13 27 16 23 19 23 22 20 22 20 21 22 27 22 20 24 18 19 26 20 20 27 29 12 4 32 24 2 35 15 25 31 40 27 30 20 15 25 27 21 12 14 22 21 15 41 24 19 20 16 19 21 13 17 13 25 17 12 18 18 23 3 11 23 29 39 35 21 30 19 35 13 17 28 38 37 26 34 30 25 19 25 16 18 16 18 28 22 24 30 23 16 12 20 2 45 35 31 20 22 30 39 42 21 4 50 8 14 32 38 26 19 10 11 12 20 20 35 36 27 37 32 20 18 29 25 33 36 29 25 24 20 16 32 28 29 36 38 31 29 30 29 31 30 31 34 38 40 38 19 48 30 27 40 33 44 25 73 45 17 19 22 13 31 22 17 22 17 30 23 29 24 31 17 18 22 14 18 29 21 14 15 26 15 11 34 25 25 81 23 29 23 20 14 17 14 20 9 11 30 30 7 15 37 37 22 26 12 7 22 24 15 18 28 5 20 14 8 23 10 14 31 7 3 15 33 35 16 10 20 27 21 14 28 2 34 29 20 17 29 21 44 4 8 26 13 19 19 9 11 16 9 9 24 18 39 20 17 16 25 19 2 18 21 9 15 27 32 22 32 12 25 37 30 27 40 38 8 32 22 27 15 9 21 61 35 33 34 33 29 33 36 33 36 29 25 27 29 27 26 27 27 24 35 32 34 39 30 31 57 31 17 65 50 18 31 76 51 6 17 29 21 25 24 22 23 25 23 29 21 21 17 20 20 18 21 13 16 27 22 19 23 19 26 30 25 23 18 7 23 30 22 19 22 20 13 18 24 9 18 29 22 26 29 14 7 25 21 13 22 21 16 25 32 14 26 28 17 29 20 23 10 15 31 37 39 30 17 26 47 10 17 19 30 16 49 23 27 13 29 24 53 20 11 9 14 11 18 6 7 18 11 18 11 1 12 25 31 15 25 26 34 14 19 37 13 18 15 19 8 33 35 10 22 27 33 31 39 59 45 17 13 25 42 25 41 34 34 36 29 25 30 36 32 31 26 22 24 28 28 23 30 22 32 26 28 38 30 41 28 30 52 48 18 31 26 14 9 17 29 17 16 27 16 27 17 14 18 16 21 16 21 22 18 14 20 19 21 24 22 29 35 14 16 19 7 32 56 33 24 25 18 14 26 22 15 19 20 13 12 21 28 25 15 7 14 26 28 21 15 15 19 23 3 8 12 24 7 12 16 20 13 31 34 20 21 22 24 50 6 8 18 27 1 30 30 32 8 9 32 18 15 16 21 15 12 4 17 16 12 13 2 9 18 12 8 11 13 10 38 48 25 8 7 2 22 10 10 22 13 24 9 17 20 7 3 47 31 19 31 11 21 19 22 29 20 23 36 47 42 24 18 26 26 30 29 25 27 32 30 23 27 21 30 24 24 27 20 28 55 32 55 15 9 25 31 16 28 38 19 22 17 20 30 23 15 11 19 14 24 17 27 28 17 13 21 22 20 20 15 22 12 16 20 26 18 12 20 17 23 15 10 5 17 14 15 16 5 19 21 19 21 14 13 28 23 20 19 16 12 17 23 21 17 24 8 24 20 29 22 16 17 26 31 27 34 34 16 14 23 27 23 30 34 63 24 43 50 35 56 49 20 13 13 25 17 6 13 17 12 10 8 12 5 22 24 19 24 32 32 13 29 46 44 28 15 22 20 7 4 28 19 39 9 32 19 30 18 2 27 20 32 27 28 20 25 19 11 23 45 47 39 43 25 26 26 24 24 24 23 22 30 28 33 32 30 27 22 26 41 26 40 17 30 19 19 20 24 14 5 38 28 23 27 13 29 25 26 23 21 15 15 16 18 15 21 18 17 20 11 13 27 28 10 18 30 18 16 19 19 13 24 24 28 16 16 9 25 25 17 13 19 19 12 12 18 15 11 13 18 19 20 22 23 28 6 12 20 41 15 14 31 18 35 36 21 29 39 37 20 27 33 24 43 29 14 48 33 3 12 24 36 35 18 25 26 19 16 20 16 18 29 23 22 6 1 13 27 29 25 35 18 20 16 57 17 18 23 26 35 20 15 38 11 15 14 23 40 27 20 12 4 17 29 22 20 29 17 9 16 16 20 38 43 36 32 32 29 24 26 33 28 26 21 23 22 23 31 40 23 45 29 12 20 17 13 29 22 35 33 22 19 25 3 28 16 18 15 25 17 22 17 23 21 20 21 12 15 28 24 20 6 21 18 22 17 6 17 20 30 17 25 17 15 7 21 18 11 13 16 14 11 15 19 15 10 17 15 17 25 15 7 18 12 29 25 15 15 46 18 43 43 2 20 38 16 28 39 15 16 25 14 14 13 29 27 31 22 33 43 8 18 27 14 18 16 19 14 20 14 14 24 3 16 16 16 10 13 24 20 33 31 30 1 17 39 25 27 27 22 13 24 11 29 20 30 16 32 27 4 29 9 15 18 31 25 27 26 22 15 12 13 15 15 22 34 43 46 41 34 30 29 25 29 23 31 43 32 26 34 25 19 20 19 15 13 16 24 18 22 23 16 19 24 18 16 17 21 18 16 22 26 18 17 17 17 24 25 35 26 36 35 28 12 20 18 25 16 20 35 17 19 10 21 24 26 20 13 4 15 17 6 12 20 20 5 21 14 8 19 18 13 18 18 29 27 25 20 39 39 49 45 17 2 44 35 27 27 18 18 12 19 10 15 14 3 38 26 46 17 11 2 7 17 9 15 10 9 18 13 8 13 4 5 28 2 13 23 3 20 26 31 23 21 17 21 22 17 29 31 23 42 17 24 15 19 24 24 13 30 9 10 19 22 24 21 21 23 32 39 40 32 24 21 17 10 6 11 27 41 48 34 46 27 33 31 20 28 8 24 17 14 18 20 17 16 19 25 13 14 26 23 14 15 21 20 20 19 15 10 10 12 8 24 22 28 31 20 31 22 19 22 30 30 19 37 25 24 33 1 25 29 18 29 19 8 7 13 16 19 18 16 14 9 13 21 6 17 7 1 13 22 29 33 14 10 37 25 21 51 12 40 10 53 26 22 24 37 19 23 22 12 24 21 26 45 11 23 35 23 34 35 20 22 13 14 20 12 14 14 6 17 31 18 13 32 17 12 28 16 20 19 26 30 14 14 29 25 17 39 23 12 19 19 37 29 27 16 35 7 26 37 14 6 24 25 19 15 20 27 32 29 24 12 19 24 24 24 22 13 4 21 15 33 18 17 30 15 24 22 17 16 21 24 22 22 23 19 15 15 24 27 17 14 24 19 17 17 19 19 20 21 25 20 15 21 22 6 22 19 15 15 17 35 19 12 23 42 16 23 38 17 15 14 10 13 13 12 16 2 1 18 18 8 12 13 15 35 24 24 24 6 27 24 5 25 23 31 33 34 20 29 27 41 3 37 24 52 27 28 29 15 23 13 20 48 7 16 24 12 22 31 26 32 27 22 42 29 22 31 24 12 4 31 6 53 39 24 54 33 30 40 31 22 22 33 27 15 32 16 23 20 14 28 8 42 94 28 11 28 29 58 39 36 20 29 27 23 18 15 16 22 28 30 24 17 14 16 17 18 19 18 25 17 16 14 12 22 19 17 13 11 13 15 14 14 16 11 20 17 13 21 22 17 21 18 16 14 18 20 12 11 18 19 21 24 27 22 31 23 30 15 15 32 50 30 46 42 13 21 7 1 35 15 10 27 11 11 26 23 19 17 9 11 19 16 26 27 14 20 15 7 40 24 30 49 22 44 63 41 48 30 10 22 41 45 32 60 19 39 25 25 17 19 22 10 19 10 15 4 24 18 9 2 6 12 25 19 16 17 14 17 15 56 24 31 32 14 21 28 26 33 24 26 20 21 36 29 13 25 9 53 31 2 21 112 57 17 15 53 17 17 15 26 13 17 23 28 26 20 17 20 24 21 15 17 26 28 20 17 21 24 28 19 21 20 16 23 17 20 16 13 13 13 12 13 14 13 21 15 8 15 17 13 17 15 13 12 18 23 13 7 16 6 17 16 22 29 25 2 19 30 27 2 12 27 26 19 58 34 19 7 37 9 3 29 23 18 17 11 13 8 12 29 21 29 23 15 19 6 6 38 47 19 38 20 27 33 41 38 17 40 25 34 36 38 32 18 53 46 18 24 21 32 33 3 20 18 20 5 41 21 14 1 27 14 10 11 16 15 28 36 7 13 8 1 19 22 17 33 32 32 16 46 50 25 45 54 20 19 45 33 37 35 23 7 2 2 48 11 16 15 32 26 14 13 14 17 21 21 19 15 12 27 20 18 23 22 16 17 25 19 10 27 20 23 34 16 23 24 23 21 20 19 19 20 20 24 20 15 16 17 11 10 19 15 19 17 21 30 21 14 25 19 26 17 19 29 30 10 30 19 31 30 18 38 27 27 41 21 35 22 33 37 25 14 7 9 13 19 37 33 31 38 9 18 31 15 24 22 11 32 28 19 45 25 40 43 30 16 25 48 23 33 33 15 13 34 43 32 19 14 22 17 17 29 21 14 30 18 31 10 27 21 40 44 2 9 48 36 13 17 8 9 18 16 17 22 19 12 8 12 19 29 25 18 9 10 32 12 50 27 3 37 42 35 45 37 52 18 26 29 38 10 21 25 20 16 17 21 23 20 16 13 16 21 22 21 21 23 24 15 26 12 25 25 11 22 9 16 17 18 17 16 15 14 13 24 16 16 20 18 14 18 19 19 25 17 15 22 14 4 14 18 16 13 10 7 26 20 21 14 16 28 10 6 21 37 15 16 22 8 3 31 33 23 23 18 33 19 9 1 1 22 26 9 31 9 9 27 18 12 17 8 32 28 30 37 16 3 31 18 32 16 29 40 22 27 13 14 31 8 21 16 1 32 21 2 23 27 19 8 14 8 12 12 37 40 9 1 12 37 9 12 11 2 1 3 8 15 19 7 47 36 1 10 18 5 28 28 6 24 21 47 17 19 18 16 9 33 18 15 15 9 21 16 14 14 14 17 16 16 14 12 24 25 15 11 18 20 15 18 13 18 14 13 18 14 21 15 18 21 21 19 17 13 10 11 11 17 14 9 19 25 13 11 20 12 9 20 17 11 24 18 15 27 25 8 35 29 2 14 8 3 21 22 35 29 30 22 13 33 35 40 26 22 19 20 40 22 31 50 44 42 29 13 14 23 30 35 41 33 15 20 27 15 37 27 2 48 7 35 23 19 24 19 38 19 20 8 42 9 26 51 18 10 11 23 5 15 18 28 6 22 56 51 33 12 17 25 25 20 6 9 9 1 26 20 1 15 5 23 14 29 29 18 26 25 15 33 34 40 30 23 22 15 38 24 45 9 15 33 31 25 19 16 19 15 12 14 14 14 20 20 21 19 16 15 17 18 17 13 14 21 24 17 14 13 9 10 11 11 11 14 16 15 11 14 19 14 11 19 15 7 11 18 5 11 19 11 12 19 17 23 28 12 35 26 27 24 9 10 23 16 6 27 16 28 46 34 30 32 53 28 43 40 26 23 16 30 27 48 41 32 53 45 37 42 47 34 33 47 31 30 14 27 22 36 10 25 24 23 38 43 11 16 50 6 17 29 22 47 23 33 36 11 15 24 10 18 7 12 53 52 25 8 1 27 7 36 45 14 20 20 8 22 25 21 14 10 42 17 20 29 14 31 28 23 27 41 49 65 31 30 24 34 22 33 28 31 26 36 32 38 15 14 16 12 11 15 15 14 19 24 23 19 14 12 13 14 13 19 17 18 15 12 16 19 14 10 13 13 13 15 18 20 19 15 18 11 7 12 12 11 18 14 13 15 20 22 17 13 17 26 4 13 6 15 46 19 18 14 18 8 8 18 20 13 23 25 25 56 19 34 30 29 49 36 51 34 14 15 28 45 16 37 38 39 38 25 25 26 34 41 48 10 27 43 4 10 22 26 38 16 8 22 38 19 20 21 20 8 19 10 7 25 12 3 8 1 14 52 28 21 3 8 18 1 13 2 31 36 25 19 11 59 49 15 2 45 17 24 38 12 26 19 7 16 23 14 20 24 12 30 27 24 23 11 15 54 26 29 27 11 16 15 17 13 12 18 18 15 17 19 20 18 16 15 18 18 17 20 16 13 10 8 16 20 13 21 22 21 16 13 13 12 11 13 17 14 12 15 13 12 17 14 19 10 8 19 13 8 23 19 1 21 1 16 42 13 11 16 3 6 26 26 34 20 43 34 20 38 10 5 18 14 11 18 22 25 44 30 26 37 18 10 10 6 33 49 55 24 23 15 24 37 53 3 29 17 23 23 29 10 12 24 24 8 12 23 35 5 31 25 23 36 19 20 1 31 57 14 1 40 27 13 17 47 68 26 34 23 16 10 57 42 19 5 27 37 15 21 46 19 21 14 17 23 9 22 24 16 12 33 21 10 16 30 20 35 6 15 19 13 13 15 16 12 11 17 17 12 12 11 15 17 18 18 20 18 16 18 12 14 16 14 15 17 13 11 13 14 14 16 19 18 16 21 21 15 14 15 16 15 15 13 13 7 4 12 11 11 22 8 11 19 9 25 13 21 13 17 7 24 21 3 13 3 18 37 7 1 38 23 14 18 20 23 22 36 35 13 25 17 27 34 39 15 34 21 28 41 64 41 38 25 12 17 12 19 23 20 16 25 12 14 20 1 16 22 16 4 15 26 19 1 9 1 55 30 10 13 15 13 1 21 1 27 23 29 67 54 48 49 39 2 19 3 35 2 15 37 6 8 12 26 8 5 20 16 13 16 11 22 7 18 20 17 17 2 10 16 10 15 7 11 12 9 9 15 14 9 10 12 14 15 13 12 13 11 9 20 12 16 24 18 12 14 18 11 12 15 17 21 24 21 16 30 20 12 9 11 16 19 17 11 7 15 21 15 15 16 10 10 17 8 9 28 1 30 30 4 11 43 12 3 25 25 14 23 49 19 37 24 16 6 22 16 16 20 22 18 27 15 44 35 42 23 62 35 23 34 21 26 41 50 28 12 35 8 3 17 13 22 4 9 19 12 33 32 26 37 6 11 23 11 18 45 42 1 11 25 2 27 26 14 24 15 16 21 57 30 9 28 35 33 12 24 31 10 17 29 16 20 4 14 19 26 28 18 5 20 10 10 3 39 17 25 36 10 28 10 6 4 12 10 12 9 10 16 16 12 14 14 14 12 9 10 13 15 15 18 10 13 19 13 8 14 21 22 22 22 21 22 20 17 10 20 13 13 16 16 19 18 10 18 9 17 22 10 12 18 7 15 10 8 8 32 7 18 26 23 11 30 16 17 14 10 1 2 17 54 1 32 12 39 32 26 34 17 38 45 20 7 10 29 34 21 50 18 9 34 22 16 55 34 54 3 1 61 24 9 18 8 7 20 18 33 25 33 12 32 27 13 7 38 41 1 11 45 6 28 24 9 25 20 22 27 17 29 31 12 37 17 27 30 28 46 3 21 37 19 19 7 43 28 11 33 47 33 12 23 17 9 10 47 5 23 17 8 19 6 40 35 19 12 15 12 11 15 14 12 15 12 14 15 14 15 19 20 19 12 9 11 11 9 13 19 18 12 16 19 17 17 19 21 21 13 10 18 23 18 17 17 8 17 13 11 9 6 10 14 13 16 11 12 10 32 12 4 12 33 8 8 27 36 25 24 31 32 19 13 57 17 22 8 41 12 35 26 16 27 36 45 17 54 35 18 26 28 36 36 25 46 24 36 32 66 4 29 35 5 17 15 21 33 19 34 20 8 53 45 7 9 46 62 21 34 17 49 20 28 45 1 42 39 16 25 25 48 24 4 28 21 23 28 30 3 9 36 6 4 30 20 29 11 19 37 19 18 8 7 23 8 20 42 4 39 11 12 29 18 24 19 17 13 16 12 9 10 7 4 8 11 16 20 20 20 19 14 10 9 13 16 11 12 25 28 15 13 18 20 14 8 8 13 18 25 18 19 16 5 9 20 19 5 15 10 7 17 15 9 17 13 23 9 7 23 4 10 16 31 25 3 10 5 14 15 14 9 32 18 27 42 3 19 29 26 11 34 20 15 21 31 33 21 22 36 22 26 35 28 51 41 30 37 31 3 47 44 35 13 12 34 26 32 27 33 45 45 54 6 3 40 32 1 31 17 24 2 48 9 36 36 35 27 65 17 49 23 15 26 17 14 23 26 19 39 43 23 46 46 37 40 10 7 20 29 14 12 21 7 38 13 26 29 7 35 6 9 49 37 2 28 9 23 12 4 7 14 16 14 13 12 19 19 11 11 19 21 15 15 12 5 12 28 25 13 14 12 11 21 24 9 5 13 13 20 1 35 28 1 23 24 9 20 15 14 14 18 16 17 18 15 12 15 8 18 23 5 14 18 37 20 21 28 17 1 12 7 26 5 14 31 42 1 12 33 44 42 7 14 55 1 33 23 29 25 38 34 22 32 33 25 23 16 38 12 13 17 55 31 15 39 41 37 25 60 41 58 26 7 28 15 17 19 14 7 18 56 26 18 34 33 23 41 19 30 41 4 7 18 21 21 7 22 27 42 30 50 41 17 2 29 24 6 15 34 4 29 30 39 32 9 47 35 7 52 24 10 42 59 28 40 11 10 12 11 11 14 19 17 12 6 12 16 14 13 13 9 3 6 13 21 27 27 15 6 8 23 14 14 18 12 12 13 6 13 17 24 13 12 25 21 13 18 27 20 19 8 19 13 11 11 14 17 12 12 17 20 32 22 26 26 28 39 12 20 17 28 23 28 30 1 47 56 8 21 34 16 10 8 41 27 31 42 11 21 23 16 16 36 31 42 38 40 22 27 19 27 23 28 40 39 26 32 58 31 54 30 11 39 30 3 17 11 15 40 40 48 33 21 24 29 21 17 23 28 31 21 39 32 14 15 14 30 18 36 38 55 33 44 7 31 37 20 22 15 43 36 12 53 34 28 28 37 16 61 9 40 31 17 49 62 10 8 17 19 12 10 14 13 7 14 13 11 9 8 9 10 10 14 14 22 25 14 7 10 15 17 12 14 16 11 11 16 16 10 28 14 4 12 20 22 8 11 15 12 38 18 18 3 16 12 12 10 13 9 6 9 1 28 25 1 35 6 21 19 27 21 32 17 32 12 29 26 33 29 32 30 40 9 14 20 19 62 21 28 15 15 21 30 35 34 28 31 3 25 27 45 30 34 19 29 22 28 38 21 36 41 30 23 20 29 17 15 42 35 26 14 25 18 14 22 20 10 18 15 25 29 36 21 15 22 12 15 41 34 26 13 16 13 22 37 41 27 29 15 50 39 31 14 25 26 18 24 45 27 23 44 5 21 16 9 8 13 18 17 10 6 10 12 9 19 12 8 9 10 10 14 20 23 10 13 16 9 10 18 19 12 12 15 17 13 12 15 19 18 16 12 10 5 14 24 4 9 8 8 33 20 15 4 20 11 10 7 21 18 13 20 1 23 14 20 37 28 34 14 12 13 16 19 34 15 13 23 20 40 16 25 37 9 12 21 47 36 48 10 25 3 37 3 34 29 31 29 31 28 32 32 34 26 30 21 24 41 27 23 27 32 2 41 34 24 11 7 40 33 21 9 26 21 19 10 12 13 15 9 23 17 15 15 23 32 34 35 38 31 35 18 10 2 33 17 21 20 20 30 27 25 41 23 26 32 35 68 13 42 5 7 12 41 6 7 7 11 9 9 10 11 11 12 14 12 8 8 15 16 11 9 13 14 5 12 21 17 15 16 11 20 15 11 14 21 19 11 6 21 10 16 14 8 13 12 11 13 20 17 6 3 13 15 9 11 16 14 20 9 5 25 20 33 18 18 4 8 39 7 21 29 5 22 30 18 3 27 23 17 4 12 36 38 34 18 22 14 42 23 16 19 21 19 25 24 22 10 21 4 10 6 20 15 28 21 37 6 41 41 13 16 51 25 26 48 15 27 30 24 13 17 24 22 31 7 14 11 15 13 24 7 15 29 24 33 8 24 17 41 18 24 36 52 36 9 16 28 17 37 26 21 46 2 26 41 59 26 14 13 3 26 9 11 17 30 9 11 7 7 13 15 12 9 10 16 11 9 12 13 10 8 10 7 7 16 22 16 9 10 11 14 15 12 15 21 17 9 10 13 16 14 8 18 13 1 22 13 17 17 7 9 11 13 7 11 13 11 12 6 4 13 11 12 13 12 10 1 47 1 9 23 23 20 12 44 14 2 39 38 43 11 10 14 13 25 15 19 24 41 19 23 6 43 13 26 22 15 13 13 16 19 21 1 23 20 1 17 38 5 30 34 17 6 11 20 20 22 8 13 8 18 12 19 35 9 18 11 6 3 30 15 10 21 12 10 35 49 28 37 68 54 42 37 5 22 18 20 11 5 8 22 4 55 30 20 2 13 41 19 2 7 11 38 22 2 12 13 13 12 12 11 11 9 6 20 14 9 8 8 10 11 12 11 14 14 14 11 4 5 15 3 13 15 15 18 12 10 21 7 17 6 8 17 10 11 21 12 8 9 23 16 9 8 21 11 9 10 10 17 21 14 17 27 13 28 5 15 23 24 18 5 21 34 9 19 39 12 15 25 35 28 26 20 15 24 13 15 21 12 43 1 28 21 14 11 12 21 18 24 13 10 1 24 1 26 10 29 18 15 26 12 30 8 28 34 11 11 13 20 18 21 10 25 29 15 15 12 10 1 26 21 3 6 9 16 31 45 52 45 58 25 36 21 13 44 33 26 31 12 22 20 30 45 21 26 43 16 15 9 30 52 32 15 35 26 13 10 16 14 6 5 13 17 14 8 8 9 10 12 13 9 4 11 14 9 10 16 9 2 11 12 15 8 9 19 16 9 14 11 13 3 19 9 8 38 15 18 22 10 18 1 14 15 32 23 23 22 4 2 5 1 20 17 14 23 39 16 19 27 6 13 6 19 19 9 36 1 24 22 2 35 42 37 36 15 14 14 14 14 32 20 42 20 33 17 11 7 8 6 7 22 40 23 12 18 31 18 15 24 5 21 20 13 11 8 30 17 4 2 7 5 5 30 26 27 19 4 33 9 11 12 9 15 20 36 27 64 30 60 26 22 28 40 30 9 9 13 28 22 39 34 24 11 31 17 9 23 27 36 44 22 43 35 39 40 15 13 12 4 5 18 16 7 10 4 11 12 10 10 13 13 10 11 14 17 2 23 3 9 20 9 17 17 9 6 13 18 17 13 8 20 11 12 16 29 12 16 15 17 7 8 18 16 16 21 13 25 5 11 11 8 17 8 29 13 22 7 9 49 9 21 6 28 2 13 22 29 10 15 45 23 55 27 30 27 29 34 36 28 37 48 25 17 32 7 40 19 3 6 40 21 45 27 30 30 13 25 18 12 21 35 5 11 27 9 22 20 21 27 47 20 27 39 34 27 21 26 53 31 19 30 45 25 29 41 40 56 7 33 51 14 41 19 16 36 19 18 21 29 15 25 20 3 25 23 35 46 43 17 19 29 33 37 9 36 13 9 12 8 9 16 12 5 10 11 9 10 15 16 11 9 11 3 8 12 7 27 11 10 19 9 9 14 21 20 13 12 16 10 11 16 17 19 7 6 13 8 11 16 7 13 28 19 10 12 27 23 51 30 32 25 3 21 6 23 20 14 27 23 22 7 12 1 15 27 2 20 31 27 23 46 49 22 51 18 20 36 76 31 40 40 28 18 11 26 46 3 42 42 10 41 33 48 37 24 60 34 11 33 33 46 21 32 22 9 30 42 22 42 31 76 29 28 24 33 22 21 31 17 25 34 35 19 31 41 25 6 28 36 23 56 26 14 2 27 29 4 8 17 35 35 44 44 21 60 24 21 32 29 21 26 14 17 13 18 10 5 11 11 11 14 8 4 10 15 5 6 18 19 7 5 13 8 12 12 14 27 16 9 15 15 10 10 15 15 10 10 15 3 24 16 7 13 18 5 6 13 19 22 6 7 23 20 12 10 9 13 19 6 6 30 6 9 8 17 18 14 12 12 21 34 38 16 5 16 22 2 9 12 4 25 45 31 49 33 14 26 65 55 55 32 41 7 42 49 8 31 39 21 6 18 61 18 12 37 50 53 15 52 38 47 42 31 4 20 22 35 61 36 46 23 73 14 32 32 26 22 13 2 9 16 15 4 9 19 22 26 35 46 10 11 56 36 43 42 13 40 46 14 9 25 2 13 12 23 14 33 40 21 21 32 21 27 25 20 10 6 8 10 11 10 6 6 11 15 7 8 16 16 5 6 16 13 15 11 15 19 14 9 16 11 13 10 6 9 15 17 14 24 10 0 14 18 12 1 21 21 13 8 3 19 39 29 15 14 9 38 13 9 12 21 18 9 25 14 14 16 11 19 17 15 4 35 37 11 15 11 19 28 16 5 22 23 19 31 18 23 30 43 41 24 57 11 42 44 12 22 34 30 18 22 31 22 16 70 26 61 30 26 36 18 39 39 36 62 35 6 16 38 35 11 40 19 41 26 40 32 38 39 38 33 33 23 9 2 34 22 21 22 14 27 11 12 47 38 33 27 16 3 50 40 33 25 34 30 11 18 37 27 7 10 10 9 18 11 10 9 6 8 10 8 7 9 11 12 13 14 14 10 7 12 20 7 9 10 14 14 11 11 19 5 9 12 14 19 22 19 13 29 12 4 19 7 12 12 18 14 13 23 24 24 23 13 13 3 18 20 15 5 19 1 7 17 15 13 3 14 24 11 21 20 85 47 2 21 12 6 8 20 21 15 10 28 29 21 19 25 44 51 34 10 33 40 32 34 49 25 38 35 22 35 28 44 35 64 31 43 38 6 38 37 30 23 27 24 47 40 10 29 46 31 11 14 14 47 33 11 27 38 20 5 10 19 11 17 15 21 26 16 24 31 17 15 24 3 63 22 44 33 33 20 24 34 31 21 4 45 32 38 23 30 20 2 17 33 11 12 5 7 9 6 8 11 10 8 13 14 8 4 8 14 17 9 9 16 18 18 10 13 17 20 10 8 17 18 9 8 14 15 33 40 19 0 20 28 4 13 13 25 22 10 2 1 12 12 31 4 8 26 21 17 19 9 15 10 15 18 9 16 34 57 32 13 11 20 15 23 20 2 37 12 10 33 30 32 12 26 35 65 34 2 10 37 59 30 45 56 28 18 30 21 61 26 44 49 32 34 32 31 17 25 26 19 31 19 32 34 24 12 44 16 42 7 5 48 9 19 18 21 10 9 10 19 13 2 7 26 48 13 2 19 24 21 27 24 48 36 47 50 23 40 28 36 35 1 23 58 4 11 28 28 11 9 10 19 12 14 6 9 13 6 6 10 7 8 11 11 7 7 11 13 11 16 8 18 13 19 8 17 17 24 11 5 9 8 1 5 16 18 22 30 23 14 8 16 16 21 3 1 1 11 21 13 12 8 15 11 12 40 17 22 12 10 26 22 32 30 16 30 37 6 4 25 20 7 21 5 10 31 58 6 7 13 9 33 7 26 7 36 15 12 15 11 54 28 37 42 22 34 36 24 27 18 74 45 26 35 19 38 3 22 38 25 31 31 4 2 22 17 2 27 33 22 24 9 5 18 17 27 31 45 32 21 5 29 18 74 51 9 60 40 13 26 4 9 10 35 19 24 51 20 27 24 20 22 42 11 5 28 21 17 3 34 19 3 12 13 7 13 16 6 4 9 5 15 13 11 12 16 17 15 11 14 0 8 0 15 6 24 22 4 5 7 9 11 14 16 17 6 14 13 0 18 11 11 12 19 21 26 15 8 10 9 15 20 13 23 28 14 19 3 15 21 5 29 12 25 52 14 11 13 27 9 31 13 15 14 22 43 28 21 24 19 24 9 8 8 33 26 18 24 8 12 34 44 44 51 10 20 21 27 13 16 89 9 15 17 14 8 27 17 23 19 19 31 16 22 9 12 25 21 12 19 24 2 14 8 18 28 17 25 19 26 25 30 60 19 21 39 33 18 28 15 9 32 49 21 53 14 35 39 6 48 12 23 9 5 31 31 1 39 17 5 10 19 11 14 1 13 4 8 22 6 11 14 12 19 26 17 1 1 14 14 4 18 11 1 28 31 0 6 22 4 1 8 1 8 15 23 19 13 1 15 14 14 8 11 5 14 6 20 19 17 13 9 16 5 13 19 12 21 21 17 26 12 24 33 20 15 11 18 24 17 10 41 28 2 63 32 14 6 6 17 23 8 2 15 34 13 26 23 29 2 36 66 31 29 19 14 13 16 14 41 46 7 24 9 10 14 21 16 17 7 10 31 25 7 8 14 17 7 18 15 11 3 21 13 4 12 17 18 30 29 18 35 26 11 30 24 15 16 26 18 14 44 32 20 27 41 19 53 11 31 18 20 6 13 33 19 13 27 26 10 13 12 6 16 8 22 22 5 7 16 17 12 19 17 7 3 7 10 7 0 18 12 6 33 26 0 12 7 21 5 5 21 21 22 22 1 5 10 12 9 0 4 22 19 1 13 19 8 10 3 21 18 13 20 24 15 6 15 35 60 54 35 28 20 1 15 22 31 23 6 21 18 9 31 38 28 44 24 25 9 18 3 13 37 33 15 18 16 23 7 38 49 29 18 20 29 16 15 33 31 31 11 30 18 13 8 4 21 23 10 4 12 12 12 30 24 8 12 36 22 20 19 21 5 13 12 3 9 35 21 55 36 45 33 32 24 22 16 29 32 41 20 2 17 19 27 49 38 38 27 1 16 7 5 16 30 30 17 8 19 16 26 8 12 11 0 7 28 22 14 5 8 14 10 0 0 13 16 7 9 11 14 14 21 17 4 15 9 16 6 12 20 8 3 7 13 9 6 10 15 10 12 25 8 5 20 11 9 40 7 11 9 11 33 21 14 35 33 28 1 10 51 14 4 17 16 14 12 17 11 25 16 23 54 17 9 26 3 22 23 26 13 13 38 23 20 23 22 24 18 30 26 33 11 11 26 13 6 29 33 19 15 21 16 16 14 5 11 19 16 12 14 7 5 17 22 7 8 28 19 13 8 7 21 4 15 28 13 20 2 48 37 16 7 9 5 23 19 12 17 24 6 16 23 16 20 31 1 20 27 20 14 16 32 22 26 10 31 23 22 2 86 19 17 0 15 59 40 7 9 15 11 7 5 8 10 9 9 9 19 2 22 21 0 11 22 6 20 13 4 10 10 0 8 37 16 9 5 0 21 21 19 7 8 7 4 3 20 26 1 21 35 10 22 30 20 18 19 23 58 29 11 11 15 1 38 19 13 24 19 21 31 30 21 6 18 20 17 29 29 5 26 20 13 9 9 19 21 20 10 17 15 38 20 13 20 19 15 22 32 9 16 11 8 11 20 14 17 17 9 6 12 11 8 13 17 24 13 14 28 18 2 13 1 31 35 21 35 49 16 41 57 20 8 21 24 39 25 19 27 26 4 23 10 4 14 7 16 3 8 24 27 37 33 8 13 16 1 17 18 45 52 10 9 39 53 16 5 16 6 18 16 8 8 15 13 2 0 7 8 12 20 13 10 11 4 6 12 10 14 17 15 7 11 29 4 6 21 4 29 11 17 5 3 17 24 13 5 1 18 44 30 13 7 23 25 34 54 46 21 1 13 15 18 8 34 19 23 23 5 13 34 16 6 25 37 21 18 21 14 6 42 13 7 18 2 12 15 18 10 31 10 21 20 15 13 21 26 16 18 1 17 11 9 6 16 7 13 13 9 9 15 17 14 14 7 21 17 9 25 23 13 16 15 21 38 26 16 31 58 33 40 33 28 37 25 23 9 11 22 34 3 14 12 10 16 13 11 14 18 7 11 12 1 28 31 22 22 12 2 47 24 44 46 7 21 14 0 13 5 5 9 9 9 8 6 6 8 10 12 13 9 5 15 6 0 16 3 9 19 14 14 20 8 1 20 11 21 6 24 0 10 16 22 4 4 8 17 33 58 5 1 32 39 21 1 4 33 18 8 43 23 18 7 1 64 9 10 27 2 12 23 15 36 30 24 11 4 12 3 30 44 1 10 27 5 13 14 15 11 35 20 1 20 16 12 11 18 9 15 8 17 12 11 3 14 6 6 14 21 20 13 10 8 7 6 1 15 13 5 11 22 1 32 31 28 23 28 2 27 45 43 30 43 53 9 24 51 17 8 16 14 24 14 19 28 8 15 4 16 1 4 17 4 13 10 28 20 24 67 39 26 25 10 13 23 21 26 27 7 5 4 8 8 4 5 11 14 13 20 6 8 7 5 9 10 16 14 8 12 3 5 23 21 19 23 11 3 0 9 1 6 17 9 1 8 26 18 10 24 17 25 10 5 27 45 40 28 16 34 19 6 12 16 20 37 6 9 35 23 14 15 21 35 21 17 21 26 20 7 18 22 2 8 15 6 10 10 6 15 23 41 7 37 17 22 16 14 8 18 20 10 9 11 4 17 9 19 22 24 14 2 3 12 17 28 3 18 18 7 10 31 7 24 26 36 28 23 15 39 39 43 24 21 42 10 31 68 16 26 15 25 19 3 6 22 4 16 7 34 16 5 6 18 8 7 29 5 49 17 2 46 15 21 13 3 1 0 11 29 23 11 10 10 11 11 9 8 7 8 9 16 9 11 24 18 7 14 2 17 21 13 7 1 5 1 13 7 15 12 26 19 24 23 42 23 6 14 25 1 18 15 1 9 17 26 24 13 32 24 31 18 18 6 9 25 3 15 16 22 10 20 22 11 50 33 15 16 1 21 6 10 15 28 16 16 14 14 7 39 32 41 12 45 5 23 23 12 4 11 22 5 11 16 7 17 6 12 18 28 28 19 19 20 16 42 14 13 11 20 18 34 31 20 18 14 16 31 20 9 40 29 55 9 29 50 33 23 15 6 20 22 5 24 13 8 26 24 16 9 1 33 20 29 24 15 36 34 30 35 22 14 24 20 4 7 12 8 5 12 8 4 15 8 2 30 18 6 11 8 9 8 8 8 8 7 6 7 7 16 14 23 6 6 9 10 6 17 23 10 73 24 32 28 11 2 11 18 15 9 13 3 10 25 21 1 9 1 12 15 11 9 17 7 12 29 4 18 20 12 24 12 19 33 41 42 17 32 5 12 11 2 18 37 35 17 11 20 37 49 37 23 26 47 37 14 9 9 10 15 7 18 10 31 13 18 12 13 25 12 26 28 22 35 10 47 47 3 60 30 19 35 14 12 20 22 17 20 20 13 35 10 51 29 14 47 25 19 22 19 43 24 25 12 12 19 15 23 6 13 15 11 39 26 27 26 21 9 18 40 25 41 11 16 21 18 1 16 1 4 27 16 14 19 9 18 13 11 15 9 10 10 9 9 10 9 7 12 9 12 8 17 4 6 11 12 8 4 1 38 12 7 21 1 20 13 1 27 24 4 5 14 14 12 11 3 21 13 11 12 2 12 17 10 14 15 8 9 22 34 29 4 16 30 16 45 4 37 16 3 9 14 38 17 20 35 37 8 12 38 21 20 21 29 42 28 41 32 18 23 15 1 13 11 8 7 43 36 26 27 18 43 44 8 40 6 41 29 50 28 29 18 1 7 22 37 16 23 26 37 17 14 3 64 20 13 33 20 10 36 7 4 30 38 25 20 8 17 42 27 21 22 51 17 45 26 24 18 21 46 57 27 11 11 16 5 33 7 23 9 21 19 5 24 16 15 15 13 8 12 14 14 11 10 11 10 7 12 9 8 6 14 6 6 11 7 1 10 27 29 10 26 9 23 15 4 6 40 15 4 22 8 15 11 16 3 2 10 19 22 9 23 23 23 27 15 27 19 5 14 31 43 29 14 16 43 49 5 29 6 16 35 6 21 16 27 30 5 6 28 14 9 17 15 34 6 26 31 27 20 50 45 50 24 35 23 36 36 32 12 24 18 30 59 11 41 37 28 38 38 28 5 27 45 25 18 41 11 4 5 13 25 10 23 10 25 2 25 39 6 13 22 16 2 43 20 25 20 6 6 1 26 24 11 26 14 13 11 36 24 55 21 26 6 3 21 32 16 11 19 16 20 3 19 10 17 21 14 9 16 19 18 13 10 11 10 6 8 8 7 8 15 10 6 9 8 13 30 10 33 5 4 5 13 23 45 23 24 15 24 2 9 6 1 20 27 14 22 30 19 15 17 14 23 25 15 27 1 7 18 1 1 22 33 23 15 53 24 19 24 58 36 10 24 24 8 9 17 14 18 21 10 18 20 36 3 5 21 30 26 2 10 32 16 26 50 25 25 58 49 18 15 32 42 34 23 19 22 20 32 31 10 20 31 31 33 31 5 23 13 18 5 24 17 2 34 14 2 4 25 11 15 28 79 21 18 7 11 19 43 27 41 11 4 15 23 10 27 34 29 44 69 30 35 13 5 10 35 2 1 25 20 12 16 2 15 17 13 21 14 19 19 13 10 12 11 8 6 8 5 9 14 14 9 12 16 25 3 22 4 8 1 30 50 23 27 16 26 15 31 22 13 19 10 19 24 8 15 19 12 23 10 10 23 22 21 18 17 10 25 11 6 20 43 32 13 29 46 46 53 39 31 41 11 21 12 15 21 11 12 21 10 6 13 34 28 13 13 17 3 28 45 30 43 10 16 44 61 41 7 22 45 19 6 23 30 24 20 18 28 31 28 15 20 25 59 2 16 23 27 31 25 24 15 8 19 35 31 21 2 22 75 15 29 22 34 30 12 19 35 36 2 32 35 4 15 14 18 18 17 60 59 17 18 44 31 3 3 37 32 7 8 16 19 9 17 6 9 16 9 16 18 12 10 13 14 10 8 11 4 7 8 14 11 18 13 14 13 13 14 1 45 28 5 4 2 1 27 16 4 1 13 39 38 14 8 1 7 11 11 30 14 18 29 26 29 19 3 28 11 1 21 25 22 19 25 45 37 59 24 50 48 2 12 10 15 23 11 7 18 9 15 2 9 21 37 23 6 16 14 12 18 10 6 30 47 31 19 66 56 10 28 38 11 32 9 19 17 12 2 2 31 52 34 27 72 46 67 31 16 45 37 18 17 33 14 16 14 7 22 7 51 60 32 46 18 20 35 19 13 19 14 50 52 17 20 20 30 26 42 59 15 9 15 7 45 43 25 1 23 33 13 16 14 17 18 4 20 6 8 16 18 11 8 12 12 8 7 14 5 9 6 14 10 17 3 41 12 5 11 9 12 17 14 6 10 23 24 1 5 46 16 26 28 10 28 29 22 21 10 17 12 14 18 20 23 27 21 34 3 19 28 3 20 61 49 2 8 66 23 54 20 23 19 12 9 13 8 10 19 5 23 16 16 16 33 38 6 33 9 9 16 30 14 8 4 12 20 29 18 44 20 2 41 11 10 20 4 8 37 59 52 36 32 30 28 13 8 13 31 56 22 9 36 14 19 60 35 53 57 47 14 43 67 10 41 13 14 34 23 12 73 18 2 26 18 7 45 12 64 10 9 12 9 21 13 30 24 24 2 10 40 21 4 13 12 9 44 12 10 18 19 10 6 9 9 4 4 14 8 14 8 14 6 12 30 14 18 15 4 13 10 32 13 13 19 13 4 28 36 9 6 11 28 17 28 11 1 21 18 8 16 10 9 17 21 43 18 16 18 48 10 26 65 3 2 27 39 33 22 17 52 23 9 27 12 10 22 15 7 11 14 16 13 13 32 56 2 29 6 32 30 13 14 16 16 29 17 31 45 25 14 27 22 12 29 30 23 45 59 31 1 32 19 26 29 17 15 7 48 31 21 22 29 60 71 37 33 17 2 32 22 2 45 43 15 33 30 6 10 29 42 18 26 29 21 40 25 39 32 30 45 15 6 27 7 17 54 8 24 10 13 26 28 8 19 33 13 13 4 17 6 2 6 7 11 12 8 4 15 15 1 8 25 25 29 22 1 27 11 13 10 27 10 35 14 13 20 9 11 1 5 9 30 14 33 14 11 11 14 7 14 13 14 24 28 32 9 27 12 19 52 51 40 15 14 39 32 26 17 4 23 44 22 24 20 19 24 29 22 9 16 19 2 19 20 45 25 20 23 16 11 12 22 9 14 10 9 20 18 14 19 49 1 10 14 22 27 16 1 27 11 16 20 15 19 40 15 27 29 55 42 42 35 60 15 11 14 10 9 19 20 17 11 38 10 22 31 17 3 49 11 4 31 24 6 46 43 13 18 23 13 21 19 1 34 1 15 53 13 27 12 1 28 39 1 7 31 18 24 23 16 26 24 5 1 3 18 5 4 13 19 26 22 5 11 15 5 23 13 15 12 16 45 39 19 16 9 2 12 6 8 11 21 18 21 23 26 8 11 10 17 12 12 24 27 29 30 13 5 55 48 26 49 2 26 21 17 24 40 34 14 9 24 29 26 19 16 19 20 18 8 20 17 5 1 25 36 18 26 1 24 23 9 7 9 15 17 10 15 10 19 15 7 7 3 5 13 23 12 29 6 18 7 10 8 31 33 43 26 47 44 23 11 21 28 26 22 21 32 7 29 7 4 23 17 6 30 23 26 51 3 36 9 19 45 39 13 21 15 9 32 7 14 13 7 15 2 21 39 15 31 18 1 19 44 23 6 19 12 15 13 18 16 15 21 11 9 5 7 15 23 24 16 6 7 15 10 12 11 14 23 20 34 11 10 20 11 8 16 13 9 11 21 26 2 13 32 23 12 13 21 13 13 25 31 39 48 15 1 73 16 9 38 20 12 10 26 25 25 20 5 21 11 17 20 16 13 15 17 17 34 24 33 23 13 25 40 19 5 37 29 10 12 7 19 2 12 5 15 19 23 4 19 5 11 7 4 13 13 24 2 19 11 41 31 22 31 55 22 18 37 17 27 77 47 20 7 42 69 11 2 12 23 7 17 19 25 14 33 20 6 23 6 31 37 16 1 25 20 8 22 19 17 15 6 28 7 1 26 17 1 18 7 5 19 35 44 20 13 18 17 15 7 13 25 11 26 31 30 25 19 8 2 5 3 8 8 3 8 6 22 19 26 6 13 22 17 11 7 7 3 4 31 36 12 14 13 19 1 8 22 23 22 18 13 23 16 1 61 20 18 32 18 17 9 6 13 9 9 12 10 22 10 9 8 7 11 15 15 11 11 1 5 11 13 13 23 18 9 43 6 8 29 1 14 6 7 15 16 18 15 15 19 8 17 20 7 3 9 22 4 17 17 19 14 24 25 24 5 29 12 38 44 5 24 35 58 35 29 54 18 26 29 11 17 13 4 25 36 23 31 14 25 24 18 11 14 9 20 32 22 21 32 14 27 28 28 19 17 38 22 20 26 28 2 11 42 19 15 10 13 24 11 1 8 7 8 10 10 15 21 19 17 22 5 7 14 13 22 6 18 15 7 6 7 10 25 31 27 39 24 13 32 8 12 25 6 18 23 20 22 19 15 7 7 33 17 17 46 1 23 12 26 25 10 11 4 9 12 13 15 2 21 17 9 5 6 11 13 12 8 21 14 7 6 11 13 28 13 3 8 8 12 7 18 16 14 20 13 4 13 16 5 15 6 16 12 13 21 23 5 14 19 4 8 22 14 10 8 28 11 41 14 39 44 29 7 7 2 35 10 2 9 26 18 11 10 43 15 16 11 19 27 13 13 11 19 3 6 19 6 22 14 13 4 1 15 7 6 9 21 18 6 16 29 20 22 38 24 26 24 28 21 16 28 28 16 13 15 19 18 12 9 7 16 12 14 17 23 5 16 18 15 26 15 10 21 20 15 23 28 26 36 1 4 24 9 21 33 25 16 9 9 7 14 51 13 30 10 46 33 15 24 2 22 29 19 22 14 7 20 7 10 14 16 16 12 9 9 11 14 24 10 9 15 7 1 17 2 12 13 3 6 5 23 18 12 7 14 8 37 14 1 17 9 10 10 21 26 14 4 15 20 17 22 12 4 20 16 2 16 16 30 31 24 17 49 28 54 37 50 18 12 33 10 12 43 17 1 1 3 6 15 24 12 3 10 29 27 31 42 10 20 21 20 9 9 23 4 8 5 19 30 9 1 12 15 3 17 27 13 1 1 5 13 7 12 10 22 30 19 14 22 23 17 11 4 6 8 0 8 12 1 13 7 14 18 12 21 17 4 17 32 31 14 15 7 7 1 9 13 11 15 11 7 30 29 22 40 3 4 38 27 11 42 21 12 19 18 14 16 9 2 6 13 18 17 13 10 8 11 7 7 12 29 13 8 20 11 18 1 12 25 1 11 24 13 12 11 26 37 11 7 11 16 11 7 12 14 6 7 11 11 2 4 7 14 12 3 9 31 17 16 22 2 42 35 15 9 27 55 31 8 35 16 34 34 1 21 33 31 8 13 21 38 20 12 18 17 16 19 8 6 25 14 30 5 12 10 7 9 2 22 26 16 13 7 18 14 16 5 10 19 9 6 10 12 2 11 18 4 2 11 9 16 17 10 15 14 6 9 6 14 14 7 20 9 1 25 13 16 10 1 42 12 4 13 11 8 20 18 2 7 13 12 32 25 34 3 21 12 13 19 38 27 1 10 21 15 9 2 13 22 12 4 5 11 14 13 11 11 19 32 1 4 1 17 7 17 1 16 5 3 20 20 7 27 36 6 32 6 5 13 3 8 10 8 4 5 10 16 3 4 16 15 1 13 14 3 13 9 15 8 2 37 55 2 33 61 60 2 32 24 30 9 59 1 12 38 58 8 14 17 5 2 8 20 9 33 42 3 37 27 4 13 25 24 19 9 12 16 13 15 20 16 7 8 16 20 15 11 11 11 9 9 11 10 10 15 11 9 6 0 9 11 9 7 8 9 10 9 8 3 14 13 12 4 7 20 14 17 2 10 40 24 1 27 23 16 13 9 27 17 6 3 31 18 18 6 5 15 19 24 29 27 3 18 1 23 39 21 30 22 19 8 4 1 10 20 5 15 30 14 11 2 8 12 11 6 10 7 8 17 42 30 18 11 46 27 14 16 12 1 13 6 11 7 16 11 5 14 6 10 3 15 10 18 19 14 4 22 8 8 21 42 51 40 35 31 17 18 23 31 19 32 29 9 37 27 22 1 16 9 7 9 10 1 38 22 30 26 10 52 53 5 5 26 17 19 14 10 1 1 16 21 11 8 17 13 10 8 10 11 11 12 14 12 10 17 6 0 9 11 7 17 18 11 0 1 10 10 1 9 20 14 8 3 14 12 2 17 39 4 14 44 14 20 1 13 25 38 4 30 14 20 3 7 7 10 5 17 24 15 35 6 14 3 32 58 21 43 19 29 22 3 22 60 11 1 28 15 3 7 15 13 6 1 5 17 7 16 19 21 50 16 25 43 22 18 20 16 17 15 19 8 7 1 11 15 7 9 2 6 5 7 8 5 4 22 28 9 38 37 51 41 32 51 15 17 36 11 17 12 1 57 38 40 52 3 43 56 1 16 17 8 16 37 9 2 43 12 28 6 27 41 10 12 22 4 25 10 13 9 6 14 26 20 5 17 14 11 12 11 9 8 8 10 6 20 16 1 2 3 2 16 9 10 16 16 9 9 17 37 12 1 11 7 5 7 45 15 41 9 11 51 22 18 24 19 24 26 12 23 2 3 17 7 18 17 23 27 19 29 47 29 1 39 48 31 17 29 10 15 41 57 56 33 20 24 19 11 7 21 8 4 23 17 8 21 18 16 18 14 35 6 11 22 12 22 9 4 28 23 1 3 16 9 4 8 10 13 6 19 3 11 9 2 7 1 12 19 32 23 6 4 16 19 8 13 26 14 19 10 32 60 36 9 1 51 48 33 6 1 27 19 28 15 15 65 27 26 6 7 19 17 9 2 12 25 6 31 14 7 17 22 15 12 17 9 8 8 11 13 12 13 14 8 9 16 12 12 14 3 1 8 5 10 21 19 10 15 31 6 7 5 11 2 11 9 40 28 13 26 14 21 15 6 26 13 27 18 19 26 23 6 10 16 9 29 4 2 51 42 12 39 48 34 31 31 31 43 44 51 58 14 11 19 36 15 9 21 10 15 29 5 11 14 22 6 32 15 18 23 34 46 25 11 17 15 26 18 21 9 11 7 14 7 4 8 9 10 13 11 8 6 17 17 22 24 18 26 23 10 1 26 29 4 16 17 15 11 19 2 54 28 5 29 20 49 31 21 21 25 26 32 14 20 31 63 28 35 8 11 20 19 14 2 7 27 20 8 23 22 7 6 21 22 8 11 10 10 11 11 8 8 11 11 19 9 1 25 39 13 2 4 12 11 2 3 17 21 13 4 12 13 14 4 11 10 24 35 9 31 15 17 32 24 14 11 21 20 11 20 14 16 25 23 12 38 51 23 12 31 49 32 22 22 34 16 44 28 20 33 36 17 20 21 16 24 43 30 32 16 54 19 16 18 14 26 44 38 28 24 15 33 7 11 27 11 35 8 15 13 16 15 2 1 12 15 4 1 13 1 20 1 11 10 8 48 29 4 11 2 17 25 2 12 6 12 15 12 20 8 33 30 12 6 45 4 23 50 32 20 6 11 33 12 34 19 24 6 23 11 8 13 5 26 32 1 12 12 9 14 22 17 4 4 14 14 13 13 13 12 9 10 14 10 14 15 21 38 25 1 9 3 6 4 5 15 24 14 1 23 10 3 11 10 5 20 20 26 21 20 26 38 30 36 20 14 18 12 27 17 24 18 33 18 2 35 32 9 39 43 11 36 52 17 27 25 27 11 39 58 60 43 18 49 21 16 9 26 43 13 46 23 29 34 11 12 2 40 36 21 15 14 14 9 21 23 39 1 23 25 1 5 11 27 19 3 4 6 8 9 6 26 1 3 19 19 14 26 6 6 20 1 4 29 10 15 6 31 12 27 29 29 27 21 37 18 17 21 54 28 37 29 8 24 60 6 8 16 1 5 29 6 8 13 1 7 19 13 20 21 14 9 11 9 4 3 4 7 11 14 17 22 29 13 8 26 38 29 9 1 10 6 1 4 19 26 17 7 4 1 7 7 3 7 12 43 1 18 21 17 23 24 3 18 11 12 26 21 52 42 74 39 10 14 23 48 6 43 62 2 57 44 9 24 12 2 37 36 68 59 8 11 25 22 18 45 20 20 15 2 36 32 8 18 27 24 7 53 62 16 18 5 11 25 7 39 49 18 21 10 12 16 21 41 19 1 8 15 6 16 1 54 9 22 42 8 13 25 1 14 11 3 17 11 6 25 12 30 5 24 20 2 6 45 34 26 32 7 54 36 1 31 7 71 14 10 24 1 32 19 1 3 5 11 29 31 32 24 15 9 11 11 7 8 13 12 10 10 9 7 5 8 13 24 17 29 16 5 32 35 5 9 14 17 12 5 4 10 16 17 10 7 10 12 2 61 32 10 9 29 9 1 19 35 12 19 10 38 52 41 20 40 54 26 25 10 52 24 7 72 28 5 13 18 51 75 68 82 26 9 21 14 37 17 23 16 23 5 19 37 38 39 12 17 23 19 21 49 76 7 21 19 12 16 16 59 11 11 21 1 23 57 10 12 16 4 9 10 5 4 11 50 25 28 4 15 5 12 28 1 3 20 1 2 17 9 37 1 14 16 7 19 14 64 33 27 22 1 44 25 12 13 23 52 10 4 12 32 23 43 37 16 34 57 45 29 12 7 14 10 12 11 9 14 9 5 16 12 4 10 12 5 6 15 35 29 9 2 12 22 9 19 16 12 11 16 19 14 6 18 10 10 11 22 2 48 36 6 23 2 18 10 21 28 27 12 16 26 37 30 10 60 31 27 34 39 46 2 67 51 13 14 15 45 64 19 21 51 13 9 10 25 21 25 11 12 17 10 32 27 23 38 3 27 17 24 19 27 71 13 17 3 28 15 61 24 25 7 26 47 30 27 6 11 11 2 18 25 12 15 1 45 24 1 12 5 5 4 41 20 2 7 3 9 11 39 16 7 1 18 1 45 39 52 29 15 16 1 44 38 1 20 35 37 15 12 25 35 15 4 32 41 44 27 1 2 15 11 10 7 18 18 8 10 9 11 8 7 11 14 7 4 11 29 15 4 13 11 1 11 27 15 13 10 5 3 5 12 18 18 10 5 1 2 22 68 11 25 2 17 48 1 22 14 1 1 34 16 14 33 18 31 34 49 49 22 36 55 22 34 66 19 36 48 2 13 66 12 19 9 15 14 35 32 16 39 21 11 16 22 27 22 7 13 30 18 2 23 67 20 20 22 12 54 1 15 63 58 44 27 6 18 21 3 6 24 20 7 3 1 26 50 8 32 7 6 28 3 19 37 1 26 11 16 25 42 4 24 26 15 23 19 41 44 1 1 23 4 21 14 34 1 38 13 31 51 18 4 12 16 12 1 5 14 8 5 2 16 9 6 25 26 8 7 11 15 9 9 8 2 3 20 38 22 15 6 14 15 6 8 10 8 9 13 16 12 7 8 15 4 20 10 14 12 32 31 11 7 6 23 4 20 14 3 15 29 12 1 17 16 18 46 71 49 16 31 56 3 37 27 8 46 59 26 30 46 12 8 24 27 19 10 33 15 9 28 5 9 29 1 34 27 19 41 20 17 37 41 38 21 10 24 20 17 5 41 14 1 1 13 25 11 19 16 20 12 2 16 23 7 37 30 1 6 2 64 48 20 42 49 25 2 2 13 15 13 5 13 2 26 7 23 11 50 20 24 16 5 40 15 17 22 30 29 7 5 18 48 3 17 17 11 8 5 8 23 37 14 9 7 24 24 6 7 11 11 5 7 11 14 26 26 9 8 21 16 11 11 16 16 1 11 8 14 25 26 16 8 7 11 18 1 7 11 26 27 62 41 49 39 12 23 1 25 1 1 6 30 33 28 43 49 32 32 20 16 6 36 69 27 57 53 16 7 14 12 2 14 20 54 35 33 34 15 26 16 20 13 16 24 38 7 13 10 23 38 50 17 12 32 15 19 15 6 18 30 13 34 17 10 7 16 4 4 9 6 7 16 22 6 50 46 2 46 77 18 4 62 31 21 36 21 22 10 24 17 46 40 20 39 31 7 20 42 18 15 20 18 34 14 22 35 41 34 36 45 26 2 27 26 14 10 12 17 23 22 19 36 36 29 30 21 6 4 3 9 9 16 16 10 13 12 1 7 13 8 8 10 12 20 17 18 11 9 16 18 13 12 17 21 11 22 42 52 65 40 15 14 24 5 41 13 8 51 21 22 56 42 1 40 31 18 49 27 38 42 45 48 21 26 35 2 2 41 12 9 17 12 44 19 14 11 9 7 18 1 23 21 1 27 31 15 19 9 36 26 17 1 29 30 10 16 14 6 6 14 9 11 6 3 13 7 11 7 1 21 18 1 29 35 48 1 29 69 17 2 46 22 10 33 2 13 41 22 16 64 61 7 24 34 5 11 4 26 15 7 24 20 13 18 37 30 12 13 83 9 8 43 52 17 8 14 13 9 14 12 10 1 2 2 7 11 12 21 19 16 10 12 13 4 1 6 15 6 12 9 12 11 8 16 15 13 12 13 14 11 9 15 25 12 27 41 26 10 5 8 18 7 16 1 17 24 6 10 34 46 11 41 43 32 9 31 28 26 16 31 31 21 34 52 14 52 44 27 11 20 2 16 18 3 21 7 13 23 12 7 24 17 8 7 6 25 35 40 21 1 33 25 30 16 9 9 18 4 13 20 1 16 48 2 7 3 7 12 7 7 9 13 38 27 30 54 46 26 25 64 46 23 53 22 32 60 25 23 89 78 8 22 1 9 23 19 6 20 33 15 10 10 18 34 20 37 30 54 23 8 39 10 31 22 8 15 13 10 23 21 20 18 21 14 17 19 17 19 11 14 4 1 10 25 23 12 7 4 17 16 14 11 10 14 4 11 14 17 16 14 12 13 16 33 35 12 8 18 18 17 36 27 8 21 9 24 7 18 35 4 19 25 15 26 16 17 13 10 16 72 51 35 12 39 30 4 2 24 4 9 15 32 21 13 21 16 15 23 8 7 15 12 11 27 1 9 24 7 5 9 49 27 4 18 29 7 5 9 13 12 1 19 37 1 19 20 7 1 8 1 4 35 16 12 28 15 13 21 23 53 5 41 20 12 65 25 52 79 45 1 7 19 27 1 19 18 5 14 8 4 12 19 20 26 15 2 81 37 19 29 2 41 19 14 2 16 14 9 21 18 16 15 12 4 11 17 13 11 3 1 15 16 5 4 6 13 25 15 15 8 11 11 7 15 17 20 16 10 8 11 14 10 4 7 17 20 30 6 14 23 12 14 19 20 11 11 18 18 20 22 20 18 24 13 12 21 10 23 85 11 20 10 18 9 14 24 3 14 3 24 19 25 29 21 1 23 5 9 13 3 17 17 18 1 31 44 7 13 11 6 9 19 13 16 18 12 7 10 10 14 16 8 25 37 1 25 54 24 36 24 1 36 21 2 11 15 18 33 49 12 29 18 8 48 16 35 82 15 4 5 20 7 3 23 15 14 12 12 5 26 30 23 20 15 13 33 48 3 44 17 67 77 6 14 13 9 4 15 27 17 10 17 2 13 14 1 26 7 17 7 5 9 6 14 15 1 11 15 11 9 11 15 17 19 21 22 25 20 8 19 8 1 38 14 19 19 26 20 19 26 6 13 14 14 11 9 9 10 9 29 17 14 31 17 2 14 21 68 14 8 3 5 13 22 1 19 42 11 14 9 1 12 33 5 21 6 3 3 18 9 12 10 15 19 28 6 5 3 9 20 11 5 12 9 8 16 6 13 4 7 14 6 1 34 12 19 17 29 38 64 58 38 20 29 39 19 20 60 17 20 19 9 5 38 59 24 10 21 13 11 2 7 7 20 26 11 17 8 31 26 21 11 18 10 17 33 18 26 18 19 52 32 5 5 1 8 30 32 9 1 20 14 2 14 10 19 15 19 4 8 3 6 5 9 13 5 13 6 15 21 18 10 5 4 3 1 6 9 15 21 19 24 35 15 8 2 16 14 4 17 21 12 9 12 15 7 13 5 15 24 22 21 1 18 47 2 64 18 8 17 15 10 1 13 12 19 11 33 23 8 14 2 30 26 1 28 38 10 4 13 7 11 13 12 17 6 16 11 7 14 8 1 8 11 10 15 7 12 16 5 10 8 14 27 15 23 19 14 10 17 27 74 38 26 2 39 34 28 21 7 2 25 48 56 20 12 29 17 10 17 34 45 31 17 8 1 6 13 9 1 10 2 2 5 29 30 30 12 4 55 38 85 10 15 15 20 27 22 6 3 19 9 13 12 8 23 1 34 24 13 3 6 5 5 10 9 11 19 14 8 7 17 26 22 12 13 11 2 10 7 13 30 5 2 11 7 9 11 10 15 15 35 25 26 17 22 30 23 21 5 5 15 8 7 1 71 49 1 20 11 1 14 7 18 22 13 2 19 28 8 1 15 6 45 4 3 9 33 20 7 6 10 13 10 8 2 16 14 4 16 15 3 7 14 9 9 6 1 16 7 9 6 15 2 4 1 20 33 21 18 23 58 12 16 39 23 2 2 4 25 44 53 31 48 41 31 35 24 40 52 49 20 1 3 14 19 10 12 6 2 10 11 22 20 16 5 1 10 29 46 19 23 15 29 34 20 8 7 9 13 12 8 22 2 11 7 1 25 33 19 6 8 9 4 7 11 7 18 17 13 7 6 9 17 23 20 16 9 9 2 10 24 6 3 19 14 4 11 15 11 8 14 18 19 1 9 8 24 6 9 17 16 37 30 26 39 5 47 12 10 35 9 1 34 10 23 12 21 11 16 13 13 6 44 19 17 17 9 5 18 2 6 11 13 10 3 11 16 12 16 22 10 11 17 9 8 11 13 20 15 6 1 11 10 26 32 19 18 7 12 4 6 45 5 4 32 32 9 26 24 33 41 19 21 23 35 47 24 2 1 17 8 7 10 7 9 1 2 7 14 14 10 23 20 1 12 21 41 32 4 34 3 21 23 18 3 8 12 3 9 16 10 14 1 14 8 16 5 6 20 10 9 13 7 8 13 7 7 8 13 16 12 6 7 15 10 16 27 20 14 12 8 22 21 15 5 2 8 5 2 15 1 25 19 18 14 5 30 21 18 15 2 1 6 24 2 19 14 48 33 22 19 30 43 13 12 49 9 1 26 2 15 7 4 30 17 22 8 1 11 3 7 5 12 15 13 13 20 20 8 18 10 12 16 9 12 20 5 1 22 29 29 18 16 16 13 10 8 5 9 15 2 28 33 10 13 49 35 31 29 39 27 63 39 22 46 49 42 32 39 48 30 20 9 1 9 15 10 12 22 18 5 5 16 16 25 7 3 16 15 2 12 20 13 15 2 8 8 1 10 20 5 3 14 13 13 19 6 5 16 12 7 13 12 9 15 9 8 4 4 12 18 15 9 6 16 14 16 9 19 15 1 14 15 13 12 3 6 11 5 9 6 21 1 33 15 12 12 11 5 9 17 34 16 1 33 18 16 11 5 37 35 19 29 44 37 1 44 24 1 13 23 2 5 41 1 9 34 21 1 6 15 3 8 11 17 13 15 9 7 14 9 11 10 4 12 18 34 4 3 4 11 4 21 22 8 15 6 7 2 21 29 12 10 13 8 52 19 8 44 15 33 49 24 26 21 5 36 62 23 15 3 13 24 19 19 22 20 20 23 12 14 19 26 15 10 22 14 16 24 15 31 11 10 28 11 4 2 2 18 13 3 5 27 14 8 12 19 15 12 15 5 9 13 7 12 10 6 13 15 7 3 5 7 6 15 11 4 6 22 18 4 8 3 13 25 9 3 18 11 2 17 18 12 22 14 22 10 10 25 22 5 15 5 19 1 8 20 31 8 12 27 23 8 32 24 38 25 13 18 17 7 25 36 32 33 27 12 13 12 6 13 5 11 6 13 9 14 5 12 10 7 10 7 4 14 14 31 26 7 15 21 9 17 23 29 15 22 34 39 17 21 18 6 31 45 23 22 36 21 47 52 33 13 16 11 13 27 10 28 20 21 24 26 16 5 13 11 13 14 2 19 23 20 3 24 15 10 24 9 16 3 10 6 25 9 9 12 9 18 4 8 11 22 19 5 13 17 1 13 19 3 6 12 5 7 9 7 14 11 6 20 39 35 14 12 29 29 38 29 9 9 2 12 5 20 13 1 4 6 12 3 10 47 1 3 15 23 29 17 11 25 3 26 20 7 12 15 24 31 25 6 34 32 18 25 26 1 9 13 10 7 15 5 8 34 1 3 13 2 12 2 6 19 7 10 11 25 18 13 6 3 11 8 11 24 19 9 39 12 23 25 13 17 34 29 40 66 15 50 41 17 17 12 2 14 30 16 11 15 13 20 21 20 26 35 22 6 10 18 10 20 23 29 25 5 10 10 7 11 11 20 1 5 25 15 15 7 13 8 21 12 