P2
2 2
255
100 254
100 254
