P2
128 85
255
10 134 123 112 99 108 94 94 89 91 88 88 96 87 84 85 84 90 66 84 79 77 74 67 70 71 69 66 67 70 68 74 67 65 65 62 61 62 72 59 57 62 42 59 79 63 59 57 59 57 52 73 54 58 55 51 57 51 62 72 58 66 61 62 56 60 60 59 61 64 61 61 61 63 67 67 66 67 64 59 65 64 50 54 71 71 74 65 60 67 67 67 71 70 71 113 62 70 75 73 79 73 74 75 80 78 77 89 98 89 83 83 91 87 88 86 87 88 87 88 91 90 89 87 97 88 97 94
101 136 127 117 116 104 100 98 97 97 92 92 64 88 88 85 86 88 76 95 79 74 73 70 69 72 67 67 70 73 99 67 68 64 65 65 62 63 68 54 61 63 71 53 59 77 62 62 60 60 58 64 68 62 58 62 64 66 91 50 73 64 51 58 55 62 63 62 68 56 63 62 64 63 67 63 66 63 70 69 63 66 64 50 71 70 69 83 72 70 70 73 71 79 65 84 73 79 71 75 77 78 76 81 79 82 83 72 72 75 87 143 87 88 92 90 91 92 93 92 85 97 91 95 96 96 104 96
105 136 130 119 115 107 103 102 97 96 94 93 92 97 85 87 86 81 81 79 82 79 69 83 79 77 71 74 74 74 46 55 78 71 86 71 58 61 64 62 48 74 65 58 58 68 123 99 65 64 60 62 62 63 63 57 72 82 64 144 52 69 66 54 67 68 63 63 62 65 61 66 66 64 68 66 96 67 65 67 68 74 68 69 73 83 71 70 78 74 74 73 75 69 78 74 107 84 76 78 78 82 82 83 81 85 85 86 91 89 90 90 86 95 92 95 95 98 102 99 101 102 87 127 104 99 111 102
113 138 129 122 115 110 108 106 99 99 98 94 95 89 94 83 81 92 83 82 80 76 86 77 76 80 72 72 73 67 69 67 61 76 56 93 81 59 69 62 68 58 64 74 51 63 70 81 68 80 69 71 68 69 59 75 62 57 82 64 143 65 105 68 66 67 66 66 68 67 61 65 68 66 66 69 69 88 67 73 70 95 74 70 75 77 60 75 91 78 76 76 79 73 83 78 80 75 78 80 82 82 84 85 86 88 88 89 94 92 92 99 88 97 99 101 98 106 109 102 101 102 106 106 105 102 112 106
115 142 135 123 121 114 111 106 105 99 99 96 87 94 90 86 79 85 86 99 76 80 78 79 80 76 75 74 73 78 75 68 93 65 53 63 81 73 47 68 67 116 71 71 68 70 70 66 67 72 100 74 73 69 67 76 72 69 65 79 78 128 67 116 70 70 71 73 69 65 37 67 75 69 71 70 69 68 109 75 71 71 84 75 75 76 75 77 71 85 83 83 79 90 85 88 78 80 90 91 86 88 90 93 94 91 95 94 98 93 96 103 104 101 102 107 107 105 109 112 108 109 110 110 112 107 108 112
117 150 136 128 121 116 111 110 103 99 99 95 94 92 89 87 72 89 86 85 72 133 91 80 83 82 76 74 74 73 73 71 70 70 61 56 52 66 80 67 71 76 92 74 70 73 67 68 71 52 74 82 72 70 73 67 75 83 74 70 70 70 69 84 132 66 73 71 69 76 63 83 63 72 71 70 69 73 74 70 81 49 80 64 80 76 80 80 82 78 80 88 72 82 85 85 89 87 102 93 95 93 95 94 101 98 102 98 104 102 107 100 104 108 117 107 110 111 114 116 116 115 123 114 113 122 112 115
125 144 130 125 127 122 116 111 105 92 100 97 96 94 93 103 92 77 88 86 76 86 128 78 77 59 75 74 74 81 73 71 73 71 90 75 47 73 63 73 70 68 79 84 72 76 85 61 75 71 73 74 108 74 73 82 53 76 70 75 50 70 67 72 77 55 70 70 69 72 58 86 68 73 72 74 76 75 73 76 73 87 73 81 89 82 81 81 82 79 103 80 81 86 90 86 92 86 100 79 94 105 123 102 100 102 102 107 106 108 106 110 113 111 125 115 117 115 119 120 121 120 121 117 121 120 123 123
134 132 129 129 127 124 120 112 105 88 86 95 97 93 94 93 92 87 87 80 86 88 85 101 79 78 90 79 76 77 82 70 80 68 71 96 84 77 74 70 77 73 68 64 63 73 72 73 60 79 71 75 81 69 73 72 72 65 71 66 71 70 57 69 71 71 77 92 78 70 73 70 60 86 74 74 80 73 77 74 80 88 91 85 87 81 82 86 85 88 83 94 86 90 94 92 93 101 95 99 98 104 104 107 114 104 104 115 107 108 112 121 116 115 120 121 120 113 123 152 125 125 127 130 131 131 145 137
153 140 132 129 126 125 120 112 117 99 109 77 96 101 91 92 89 89 91 106 85 87 83 69 70 81 72 81 81 72 157 84 82 84 69 86 83 76 77 72 73 76 75 89 85 73 73 78 75 70 76 83 70 69 83 76 73 75 58 94 79 77 77 72 73 72 73 105 99 85 63 76 73 75 76 75 75 104 87 76 62 84 89 101 85 86 90 90 94 96 93 91 89 92 87 95 88 93 94 100 100 104 104 150 113 117 113 115 110 126 117 118 123 125 124 128 125 131 133 134 131 132 138 130 144 138 141 148
146 136 137 131 130 123 117 117 115 113 84 103 103 174 90 96 91 86 95 91 98 83 81 80 77 64 82 72 92 84 84 162 75 75 70 62 81 90 90 70 83 75 74 80 73 79 80 76 73 78 81 55 72 71 74 73 79 75 70 58 74 69 70 74 71 74 89 75 116 93 116 70 72 72 80 75 75 69 136 81 83 102 85 89 105 89 91 93 97 97 97 99 94 102 102 95 99 99 107 147 105 106 106 129 114 120 110 108 127 113 118 130 128 133 124 133 134 133 139 142 145 143 133 151 148 141 153 148
143 142 142 136 132 127 122 118 121 111 104 81 91 100 166 89 97 95 95 78 87 103 85 85 79 91 69 84 84 84 87 77 137 79 80 79 78 77 79 74 71 75 76 76 78 73 78 71 80 77 76 94 56 80 74 74 76 77 79 75 79 90 70 70 71 75 72 96 189 90 99 75 55 75 117 67 92 82 88 139 74 91 99 91 91 97 92 96 98 97 103 103 101 98 100 104 102 103 103 106 106 110 113 115 148 120 129 131 116 122 123 126 131 139 137 141 142 141 147 148 149 145 145 148 141 144 142 143
146 146 143 136 133 125 129 115 106 112 115 111 81 102 85 162 94 105 96 173 90 86 88 83 84 79 77 82 83 84 85 75 82 135 75 77 81 77 74 71 78 75 75 76 74 75 80 60 76 78 72 75 74 61 78 78 73 78 77 79 75 77 79 76 72 78 66 79 75 123 75 85 83 75 102 87 92 89 89 94 97 87 97 97 96 98 99 98 99 101 109 104 108 107 122 109 106 107 110 111 115 122 115 123 124 132 128 124 132 125 131 138 132 142 142 144 146 148 147 154 154 152 153 149 140 137 138 148
144 141 140 133 126 126 125 123 113 112 105 102 107 104 100 94 97 96 109 89 157 102 97 87 86 86 82 96 85 77 102 82 81 77 77 77 78 78 77 82 71 79 77 77 80 79 78 90 39 80 86 81 86 82 71 79 87 72 68 85 78 77 76 88 72 70 76 87 84 91 66 78 87 77 86 84 82 88 86 91 91 92 115 101 84 101 101 99 101 105 98 100 108 105 109 121 112 115 120 116 111 116 117 116 122 126 126 135 141 135 142 128 130 138 140 144 145 153 143 158 151 156 151 151 144 149 148 145
153 149 144 137 139 131 118 121 123 111 107 104 108 107 103 104 97 91 86 105 90 165 93 89 90 85 87 86 112 84 85 91 82 81 75 78 76 78 80 77 77 67 82 77 77 80 81 81 84 50 88 75 77 81 78 76 59 86 98 61 79 84 84 79 80 78 77 85 81 86 83 48 83 89 88 88 88 88 88 91 95 97 98 103 105 147 106 106 107 111 108 108 122 125 120 103 118 116 110 109 122 123 123 124 122 124 132 131 137 137 133 139 139 142 142 146 147 159 202 136 153 149 152 158 150 152 161 149
169 153 145 142 140 140 113 118 116 116 110 107 108 106 104 102 98 101 104 81 99 92 149 87 107 86 88 87 85 133 88 156 82 83 83 85 125 79 80 81 79 79 80 80 80 83 84 89 84 78 36 77 70 76 78 71 57 87 81 94 65 87 82 82 81 84 84 84 86 81 92 84 86 87 92 88 93 87 95 96 95 97 98 99 98 117 109 109 104 111 113 116 106 114 118 123 146 121 128 126 124 127 124 127 124 125 127 127 133 140 138 140 140 139 150 150 146 160 158 152 156 159 157 160 153 151 153 168
166 155 148 146 162 134 129 122 121 116 112 109 109 108 105 104 99 102 100 116 82 97 95 97 88 107 85 85 87 79 166 88 119 93 85 85 80 101 75 83 81 81 83 71 98 83 85 74 81 81 73 82 83 80 83 83 87 70 80 91 85 74 95 83 83 84 85 76 89 97 90 78 93 92 92 90 96 100 100 90 94 99 98 104 101 102 108 107 106 115 111 117 113 114 117 114 129 120 137 126 125 125 127 124 126 125 125 129 132 138 144 139 151 157 161 177 170 177 163 161 164 159 172 156 159 159 165 167
167 160 155 150 148 141 128 126 118 121 117 115 110 107 119 107 106 104 104 100 133 88 98 88 98 102 116 93 87 87 88 123 80 136 90 82 87 76 106 96 89 86 86 92 86 86 86 85 61 91 82 84 83 81 84 83 83 87 96 88 87 80 71 81 95 81 87 85 82 81 85 90 118 98 95 94 94 95 104 94 101 95 101 102 104 106 110 109 106 114 117 118 122 121 122 125 114 124 125 132 128 122 129 130 123 124 125 128 129 127 147 142 160 167 173 175 184 177 165 172 168 176 167 163 163 170 154 159
177 167 162 156 148 140 132 127 124 119 116 116 113 110 111 112 108 110 103 100 115 141 103 91 101 99 102 97 92 92 92 94 100 80 85 87 94 99 80 84 88 92 92 90 102 91 94 79 83 96 87 85 84 86 88 84 84 87 82 83 90 77 90 80 100 89 89 88 88 89 98 103 96 118 101 94 97 96 102 98 97 101 99 106 105 107 111 113 112 113 118 116 117 126 123 123 120 126 127 126 124 125 129 126 123 123 122 128 129 149 152 159 155 166 178 183 185 178 174 171 173 172 166 171 166 172 174 169
179 175 161 148 137 137 130 128 126 121 121 120 118 120 107 116 113 111 102 116 104 105 150 100 103 99 98 95 96 91 96 95 96 82 89 87 90 91 68 120 87 94 85 90 87 99 93 91 89 91 119 87 89 94 84 86 89 86 78 82 93 88 86 92 83 90 90 96 89 94 101 93 96 97 100 102 103 103 101 98 100 104 105 107 105 109 111 116 115 118 118 121 119 122 121 122 120 121 129 114 126 116 120 119 117 122 126 127 131 134 145 146 158 159 170 173 178 177 176 172 172 175 172 173 178 195 189 188
184 172 154 143 141 133 134 137 125 129 124 123 123 124 128 118 116 119 111 122 101 113 101 105 101 100 103 105 99 106 89 99 107 97 95 98 78 96 101 77 93 93 97 108 97 96 98 94 96 89 92 96 91 91 90 92 94 92 91 84 97 80 92 85 96 89 96 93 83 113 79 96 102 98 101 94 105 98 99 101 105 104 110 112 111 117 114 117 115 118 118 119 124 123 123 126 127 135 125 119 122 125 126 125 123 113 128 133 135 136 138 147 149 160 167 167 162 161 179 168 177 173 171 180 180 189 193 177
173 163 154 148 145 141 139 137 130 129 129 125 124 127 122 122 118 116 114 113 119 95 109 107 108 99 111 102 104 99 101 97 98 102 100 101 107 91 103 94 107 99 91 94 96 91 111 99 97 98 96 94 94 94 93 93 92 95 93 93 98 105 104 96 105 95 99 100 96 108 101 143 94 98 104 100 105 101 101 102 106 107 106 111 117 115 119 117 127 121 122 122 127 128 129 135 143 134 164 129 127 127 128 132 128 141 142 135 137 140 142 145 148 159 156 165 169 158 155 177 180 180 190 190 186 186 185 182
171 161 155 151 147 145 141 142 138 146 136 137 132 130 129 124 123 118 117 117 121 103 111 113 107 110 105 103 110 107 106 105 105 105 106 105 102 108 89 102 102 98 111 96 99 99 73 105 101 99 103 97 88 91 88 95 93 94 95 95 96 98 104 108 95 100 105 113 112 107 102 91 155 101 101 101 101 104 103 102 103 107 109 115 114 115 115 125 122 131 126 118 139 128 126 127 132 137 137 127 127 134 133 137 136 137 136 144 140 138 149 153 154 161 162 165 169 166 169 175 184 184 192 188 188 190 182 170
171 164 160 155 155 147 145 142 144 144 144 142 140 138 133 135 125 122 122 119 124 119 123 118 97 111 112 111 108 114 110 107 105 107 106 109 105 113 107 108 106 108 114 96 94 105 92 128 91 102 124 86 98 106 98 96 97 99 99 98 98 105 101 97 106 110 108 113 113 119 126 125 111 96 105 105 105 104 106 110 109 109 112 113 119 119 121 126 118 128 128 127 127 129 127 131 135 134 125 125 144 138 138 140 137 139 143 149 151 146 157 157 161 164 168 172 171 167 174 183 194 204 200 190 184 175 169 174
174 185 162 159 158 149 151 145 145 144 142 140 136 122 128 127 135 126 124 119 121 121 127 142 119 115 112 114 114 108 113 111 111 110 104 109 109 108 108 105 106 106 95 95 105 120 107 110 99 99 108 106 105 99 101 109 104 108 102 107 105 108 105 110 110 107 115 118 119 118 120 129 123 126 112 112 130 110 112 111 111 113 110 116 118 118 120 125 127 131 130 133 119 121 134 137 135 127 131 144 151 140 145 146 145 148 149 151 153 160 157 162 171 173 173 177 172 177 186 201 214 209 210 186 177 172 170 174
181 167 172 163 163 157 153 149 148 146 141 141 137 140 128 133 130 129 130 127 127 122 123 124 149 124 124 123 120 120 115 115 114 112 115 110 110 108 110 116 106 110 110 122 107 105 107 97 108 104 103 107 103 109 101 102 109 107 110 112 113 116 116 117 118 112 117 121 125 129 141 141 125 131 114 117 108 107 113 115 113 116 118 121 111 124 118 131 136 138 136 135 139 140 136 145 144 141 148 147 139 154 152 156 161 161 163 168 166 166 171 171 175 181 183 180 182 179 196 208 210 206 201 193 184 182 177 182
142 182 176 173 167 159 155 152 154 148 145 141 139 134 136 145 130 133 131 131 128 125 127 122 124 123 135 163 120 120 122 117 120 115 119 124 112 112 107 109 114 106 99 114 139 109 107 185 104 107 114 114 109 105 114 126 104 109 112 113 119 115 117 121 124 116 128 129 133 134 138 133 131 127 121 113 121 116 121 120 124 122 125 126 125 138 132 147 139 143 152 137 146 145 151 144 151 160 155 161 167 160 165 165 168 169 177 157 164 174 175 180 181 186 186 187 184 189 205 205 214 200 196 184 181 181 192 68
43 185 179 172 174 168 161 156 153 150 149 146 144 142 133 154 159 136 131 130 129 129 132 126 128 126 130 128 127 128 123 112 128 121 118 118 117 117 114 111 114 112 114 113 114 117 116 102 175 108 98 113 111 112 107 109 126 114 114 113 112 118 116 122 126 134 138 122 132 141 135 133 134 135 124 120 127 152 126 129 123 126 130 130 151 141 131 137 144 144 162 164 164 172 169 169 181 175 189 182 180 194 184 183 185 180 175 189 187 172 187 182 186 188 194 194 187 194 200 191 186 184 178 184 190 132 74 62
28 193 186 182 182 179 170 161 158 153 154 151 145 141 144 131 141 131 135 134 131 128 135 128 130 127 126 130 130 129 125 122 120 118 119 119 119 120 116 116 118 116 119 121 115 114 113 109 121 140 116 114 110 113 112 111 115 116 113 113 117 123 115 112 114 136 126 134 138 139 137 141 152 142 134 140 141 128 137 132 132 135 138 136 142 223 151 153 164 161 171 181 178 184 190 191 191 188 179 193 200 178 191 188 187 188 178 189 195 188 199 187 189 191 197 189 193 185 187 183 192 186 188 190 205 46 75 39
43 198 199 193 182 168 190 165 165 161 155 155 150 152 153 144 135 140 141 137 138 135 135 133 135 134 133 133 131 133 146 126 125 124 121 123 124 119 120 119 118 116 118 115 121 123 115 119 120 127 108 121 118 117 119 115 116 117 113 135 115 119 117 132 111 123 145 118 132 143 135 138 149 151 158 158 157 146 150 133 189 138 151 158 158 161 148 156 171 174 182 183 183 197 193 192 198 206 198 197 193 194 195 192 192 189 191 191 189 193 193 195 195 194 189 213 181 197 198 190 190 18 67 16 31 32 85 22
21 203 203 193 185 181 174 172 164 164 159 158 155 150 151 149 146 147 144 143 141 138 141 139 138 138 136 138 136 135 135 135 128 133 132 148 130 129 123 121 128 124 121 120 115 125 125 130 121 137 128 126 117 116 119 123 128 116 120 122 123 124 123 122 125 152 112 140 132 140 138 138 144 152 153 164 168 171 170 171 175 161 176 163 170 166 167 159 236 164 172 173 179 186 188 191 194 196 200 204 203 198 197 195 193 191 193 193 193 193 193 194 197 198 195 194 193 186 199 207 10 14 23 3 35 37 9 12
43 209 213 204 198 191 181 173 174 166 165 162 160 157 156 150 150 146 154 146 147 145 149 144 146 142 142 145 141 136 137 138 134 137 131 137 127 133 132 127 131 129 126 125 111 124 128 130 134 125 128 126 125 127 148 124 160 128 127 127 129 125 133 132 133 139 149 121 135 138 140 142 150 147 149 157 164 171 181 186 179 179 173 168 185 177 170 184 162 160 166 167 175 183 199 193 188 192 197 199 198 194 194 199 196 196 197 198 198 197 199 199 199 200 201 199 198 172 208 69 9 14 2 49 46 76 29 76
11 207 208 205 200 196 186 200 178 174 171 168 163 158 159 157 157 152 151 152 151 152 154 149 150 151 147 148 143 146 143 143 141 138 142 139 143 138 144 138 139 153 158 163 146 136 137 154 142 142 129 134 129 129 133 135 137 145 140 139 140 140 143 143 144 143 133 148 151 151 150 146 152 164 173 173 174 184 187 181 186 190 208 186 242 172 168 172 202 177 179 182 184 187 191 190 194 197 195 196 197 195 197 201 200 199 202 202 204 208 203 220 204 209 200 207 201 6 28 30 13 3 2 40 14 12 2 29
19 203 203 203 202 200 196 185 182 184 179 174 176 167 164 155 161 164 159 155 156 156 151 149 152 151 150 152 152 156 151 149 148 148 151 149 149 145 139 135 135 138 136 137 135 138 138 142 135 141 145 143 140 134 140 142 143 151 158 161 159 160 158 168 156 162 164 164 162 170 161 166 161 156 154 161 171 176 176 196 180 183 180 174 172 201 173 183 180 184 185 185 184 185 188 193 192 192 195 198 195 199 202 201 202 207 207 216 207 207 94 117 146 226 123 75 8 8 57 30 10 11 32 57 40 40 21 44
59 217 211 204 202 201 199 195 192 185 186 194 184 182 176 167 189 175 161 163 159 159 160 159 158 159 161 158 157 159 158 156 161 163 157 154 149 146 145 142 141 145 141 139 139 137 138 143 141 144 144 143 147 147 150 150 147 151 147 147 161 162 164 168 165 164 166 170 169 186 184 186 177 175 173 173 174 187 182 172 165 164 168 169 177 189 186 196 200 195 192 193 191 191 192 195 197 198 199 198 198 202 204 205 217 200 210 213 164 91 51 103 122 101 23 33 3 41 38 101 2 1 55 48 28 21 37 42
30 218 208 207 200 201 199 196 196 192 189 187 193 188 191 186 179 169 168 167 166 166 166 164 163 165 164 168 165 161 166 161 159 160 158 154 155 153 150 145 148 148 143 143 143 147 143 144 149 148 151 156 162 158 165 175 177 174 171 167 163 158 157 162 156 161 163 169 171 169 163 158 165 174 180 184 187 194 188 186 197 192 192 186 185 186 187 186 190 194 195 199 199 199 200 202 202 202 204 204 205 209 213 211 215 213 217 194 142 40 95 155 219 18 8 14 2 33 2 4 7 6 11 7 17 67 18 12
35 213 204 201 198 201 205 198 196 194 192 188 188 188 191 184 187 179 176 173 173 175 170 169 173 174 169 174 170 169 170 167 163 165 163 160 161 159 157 151 155 177 153 150 150 149 156 152 154 158 156 161 161 165 168 170 169 170 175 177 177 185 184 178 171 171 165 161 159 157 164 167 169 166 172 184 188 186 185 183 184 184 186 188 188 191 191 194 198 196 201 206 204 201 204 204 202 207 209 211 213 214 214 214 220 225 236 233 58 217 98 59 159 14 5 6 7 11 14 11 2 3 4 57 41 8 9 20
29 211 211 206 204 203 200 197 201 198 194 193 191 190 191 190 188 186 182 180 179 178 179 180 182 181 183 178 175 173 176 171 171 171 169 166 163 161 158 156 157 157 171 159 161 161 158 163 163 162 162 163 167 158 163 167 179 178 174 183 175 170 167 160 162 162 164 164 164 171 167 171 172 171 173 176 198 199 196 191 188 188 181 196 195 200 200 200 202 205 204 205 207 213 211 210 217 217 216 217 221 220 226 231 241 244 22 40 15 43 169 74 44 38 3 13 2 2 52 14 9 6 10 18 98 45 76 38
14 211 210 209 207 203 205 199 198 195 192 191 190 189 190 198 187 191 188 181 185 181 180 179 181 184 183 182 177 174 175 177 176 173 172 169 168 168 167 165 167 177 168 171 174 176 175 176 176 186 175 177 173 171 170 197 159 178 182 176 170 169 169 168 170 170 172 174 177 178 178 183 185 182 184 186 192 203 206 208 202 204 212 243 208 213 212 212 215 216 218 219 221 227 226 227 228 231 232 231 233 240 236 245 99 53 25 22 21 23 31 42 47 34 21 15 17 4 9 2 11 1 17 42 45 33 59 18
22 212 212 215 215 215 205 200 198 196 197 194 193 189 188 183 191 179 182 185 186 182 181 181 183 181 185 187 185 183 181 182 181 186 184 182 182 182 179 180 180 183 185 187 190 195 189 182 179 176 178 175 179 179 181 179 163 188 175 175 177 181 182 183 184 183 184 184 187 187 191 196 206 208 206 209 209 211 217 215 212 211 213 220 214 219 222 226 229 231 232 233 234 233 233 233 231 230 231 232 232 241 46 42 44 14 25 25 16 2 22 52 34 22 17 36 26 6 8 8 3 11 25 38 55 16 94 10
33 218 214 212 212 211 211 208 206 202 200 196 195 193 191 190 190 187 185 181 182 190 177 176 180 178 178 180 176 184 184 183 185 188 187 192 190 191 191 189 188 186 186 186 187 186 187 188 186 184 186 184 186 184 184 197 198 202 197 194 197 196 200 208 195 199 200 199 203 208 211 218 222 221 218 231 229 220 221 223 218 220 221 226 227 220 251 242 237 237 238 240 240 240 240 240 239 231 233 155 44 50 38 54 12 42 12 9 25 8 8 44 24 9 5 27 22 19 10 1 7 14 77 4 37 18 33 13
54 152 215 219 218 218 209 216 209 212 204 204 200 198 195 194 192 188 188 184 182 180 180 175 178 176 175 179 183 185 182 180 178 179 178 174 176 174 176 180 172 177 179 183 184 190 187 188 190 193 194 198 197 204 201 199 204 206 209 213 209 205 200 199 201 198 202 207 209 211 211 211 216 218 220 219 222 224 224 228 230 229 229 231 235 229 230 228 229 231 231 234 235 230 228 236 240 240 31 84 7 35 32 11 31 2 38 27 7 10 22 44 32 10 13 32 22 26 13 2 5 9 4 75 41 32 51 2
51 3 31 21 215 189 141 164 40 211 209 210 206 203 200 198 195 195 192 190 189 185 182 178 175 178 179 177 180 181 186 186 184 188 186 184 182 183 186 191 189 191 193 190 189 195 199 200 200 198 202 202 205 207 206 206 208 209 208 205 208 207 206 208 207 209 213 215 214 213 213 212 213 214 218 221 223 225 225 226 224 227 227 226 226 226 225 228 233 233 231 233 234 239 37 151 242 23 3 24 42 27 43 44 31 21 10 18 3 19 1 14 86 69 16 14 13 18 3 2 4 7 40 29 48 83 37 4
21 24 35 14 17 215 97 50 71 212 212 209 208 206 207 203 202 199 195 192 193 192 192 193 195 193 190 188 182 181 184 184 183 188 199 202 204 208 212 199 202 198 199 199 199 200 198 196 195 197 198 199 197 201 204 207 209 205 206 202 205 206 202 203 203 206 205 207 211 211 212 213 216 217 215 218 221 221 220 223 221 224 225 226 225 229 231 230 231 232 233 236 229 29 40 48 12 12 7 7 23 20 30 16 19 21 29 25 15 16 7 49 27 48 16 11 16 35 31 46 15 69 74 19 31 6 13 4
29 26 23 23 21 90 11 22 73 220 216 214 213 210 205 207 205 201 199 197 195 194 191 186 186 186 191 193 192 192 195 198 192 190 190 189 191 192 191 190 195 195 196 196 195 199 199 200 201 199 200 202 204 204 204 206 208 206 205 205 203 208 207 209 210 209 210 212 214 215 213 216 217 217 218 219 220 223 225 230 230 229 232 233 232 228 234 235 236 237 240 246 70 24 10 33 9 13 16 55 34 40 44 8 6 28 9 4 13 14 23 11 56 48 12 9 22 31 33 7 2 39 53 27 35 7 34 23
24 29 28 21 21 23 19 21 45 18 125 145 103 79 50 175 210 212 194 196 199 195 192 187 189 188 189 189 190 184 201 193 196 196 198 198 196 194 194 193 193 198 196 195 198 201 198 199 198 202 203 204 204 203 204 204 203 207 205 206 206 204 205 211 212 212 214 213 212 212 214 217 218 215 219 221 221 226 224 226 229 229 233 244 242 242 241 243 248 19 250 52 37 28 67 3 91 3 39 7 42 14 6 17 27 6 37 2 29 48 9 23 42 51 44 2 27 31 30 1 5 43 12 2 10 38 51 23
0 39 39 28 26 26 21 15 18 13 35 36 211 68 21 18 36 35 25 35 80 197 199 183 187 186 187 192 191 199 5 194 198 198 200 203 200 203 201 203 202 208 206 204 205 205 206 206 207 209 209 208 207 209 209 209 208 210 211 215 214 215 215 216 215 214 214 215 215 214 217 217 218 218 221 224 227 227 229 231 235 235 237 238 239 241 237 237 246 20 55 38 13 47 103 100 54 40 31 7 38 41 40 11 15 11 3 39 11 14 28 43 42 37 63 16 22 34 26 5 1 6 18 42 26 5 2 8
45 62 50 38 32 27 22 23 17 16 28 7 24 20 6 27 22 21 22 27 22 33 40 203 36 37 37 26 145 183 42 193 192 194 193 197 197 200 199 203 199 202 202 208 206 206 207 206 206 207 209 211 211 210 213 216 216 216 215 217 217 218 220 220 221 220 222 224 224 224 225 225 228 231 230 234 233 233 236 238 239 239 239 239 252 252 251 250 37 11 124 57 9 21 37 5 25 25 93 49 20 6 17 43 18 42 28 17 19 24 45 66 36 43 58 4 11 2 25 38 2 2 17 6 22 0 19 26
23 85 70 56 47 38 31 27 22 19 16 27 14 16 11 15 19 12 13 7 8 24 16 11 20 36 53 13 24 14 17 19 196 190 196 192 210 188 196 193 200 202 203 206 206 209 210 210 212 213 214 214 214 214 214 219 219 219 220 221 231 228 229 225 226 227 228 228 230 228 228 229 234 229 231 232 231 230 234 236 237 238 241 233 32 33 243 47 39 18 55 63 85 52 30 15 22 29 31 2 2 35 10 12 12 20 23 22 12 5 31 44 72 41 31 2 10 25 35 21 8 35 11 4 13 6 33 18
36 104 91 88 85 71 56 50 38 35 34 26 28 26 20 21 12 13 5 37 21 20 11 19 20 16 29 22 15 5 8 19 175 77 19 15 30 33 15 182 207 205 202 207 207 204 206 209 214 214 217 219 219 222 223 223 225 224 224 233 40 17 225 235 227 222 225 234 241 230 227 227 227 228 233 236 242 196 235 235 239 239 82 253 20 29 3 29 39 27 77 43 7 65 40 37 41 39 39 42 24 41 12 27 22 27 21 17 11 11 8 21 48 24 21 37 8 14 19 7 5 34 14 11 4 12 14 48
91 238 167 82 83 79 81 79 76 70 59 55 49 46 37 29 24 28 22 20 29 31 26 27 18 10 19 8 15 13 17 4 47 29 14 20 11 8 13 48 28 73 80 44 192 206 213 215 213 212 215 217 221 224 228 229 231 231 232 41 27 32 75 233 131 31 46 237 234 231 234 231 231 230 234 243 19 134 19 4 236 137 39 49 45 28 43 12 21 65 44 59 24 61 18 20 35 38 35 30 49 29 37 18 20 16 35 8 16 13 15 28 29 28 20 27 33 20 34 40 27 55 77 102 66 67 78 109
46 58 175 141 233 222 251 115 66 75 54 73 91 83 54 68 63 55 50 42 39 38 32 33 22 18 19 18 13 24 15 15 4 15 10 12 9 16 8 20 9 149 34 32 9 60 14 132 206 168 205 215 215 220 225 222 233 237 58 40 26 8 34 12 152 68 33 10 229 229 228 227 224 222 225 26 33 34 33 23 249 50 157 8 31 26 44 19 33 22 18 9 40 26 20 12 36 40 30 43 43 22 5 21 23 32 17 16 17 18 18 24 53 28 27 18 10 63 100 87 108 116 78 45 27 34 36 63
92 71 147 89 232 58 248 244 55 147 250 180 123 93 66 64 64 63 77 85 75 75 68 60 55 49 46 38 33 28 22 23 18 19 10 13 10 6 20 27 25 56 31 29 30 39 28 16 18 14 72 194 216 149 236 236 237 106 25 25 4 11 8 32 25 23 17 202 224 218 219 220 221 218 5 32 19 12 33 11 228 142 25 46 44 32 28 23 41 24 28 14 46 39 30 52 40 47 23 29 35 35 9 27 29 29 23 21 8 15 60 97 99 95 89 101 102 68 42 89 62 52 91 58 110 115 114 114
137 129 59 70 85 39 61 53 118 123 38 94 236 238 143 232 194 178 133 75 59 60 68 54 60 75 75 73 70 66 63 60 51 45 43 35 30 26 35 39 35 25 26 26 18 22 36 5 19 16 24 7 17 90 49 30 28 36 25 14 12 17 19 22 18 28 14 112 213 215 214 215 215 219 220 31 26 11 13 40 32 43 22 41 29 30 18 29 35 21 60 25 5 18 44 51 16 32 27 59 30 23 60 39 48 64 70 99 71 65 43 34 84 113 86 91 122 87 124 99 113 140 120 146 93 175 93 131
113 28 71 33 55 124 112 163 174 173 35 45 103 117 201 71 205 141 167 171 157 202 218 154 219 124 102 79 60 72 49 73 67 52 70 72 70 67 66 58 59 45 32 34 33 32 34 31 28 29 30 36 45 35 42 29 46 61 32 24 3 11 2 32 18 15 21 22 52 235 216 9 35 73 65 46 40 47 22 23 60 58 50 35 27 34 24 47 25 14 20 35 59 12 102 110 94 103 39 123 110 81 62 61 105 65 82 81 101 133 132 163 163 117 76 138 96 86 137 75 133 107 104 137 148 166 81 146
113 28 63 44 29 32 39 116 69 83 71 23 33 30 91 98 47 150 154 120 82 121 89 145 173 148 125 41 164 95 181 40 143 175 101 97 170 82 81 61 41 59 64 88 79 67 66 85 60 81 65 64 64 65 81 109 109 73 55 56 46 57 59 55 53 58 75 97 87 100 89 93 79 73 92 91 88 84 74 79 71 74 67 66 64 66 64 77 50 101 83 91 79 115 102 103 113 110 121 162 125 119 128 136 134 120 142 121 136 164 153 153 151 180 167 184 148 152 116 140 170 149 145 92 33 95 51 169
144 212 173 110 174 184 169 243 178 125 92 111 79 93 73 46 41 35 29 63 47 100 165 34 22 36 70 51 34 68 44 60 57 105 174 14 123 162 62 250 137 97 47 80 92 140 180 140 158 162 215 178 203 56 95 105 141 106 124 145 81 75 67 85 165 128 119 129 200 105 131 127 125 159 119 150 105 163 152 179 151 147 136 161 159 122 162 117 165 158 146 104 142 156 83 108 160 205 128 116 156 111 101 74 89 116 122 60 62 66 182 141 151 82 96 57 92 99 40 144 132 104 81 94 128 133 118 94
135 37 31 20 42 30 67 73 27 38 51 75 156 129 147 208 31 79 139 81 114 70 61 51 100 66 27 87 189 45 133 120 164 158 46 127 107 59 121 116 98 138 146 123 46 48 58 58 45 66 78 77 104 77 194 205 149 131 73 64 40 85 68 76 37 100 208 101 219 206 99 113 112 125 136 168 166 161 165 148 141 125 161 181 207 184 213 149 167 185 57 146 144 127 133 57 137 83 212 169 137 208 97 86 108 171 120 156 154 164 93 153 106 69 130 138 117 135 167 108 121 52 133 80 39 61 67 129
96 23 27 16 49 33 21 14 26 33 44 37 38 70 15 21 18 75 47 18 80 191 176 179 49 70 71 92 60 118 43 27 63 38 38 40 26 28 42 56 107 40 49 95 59 97 52 58 105 107 108 206 134 177 197 104 47 64 76 49 48 43 80 82 49 111 149 177 199 107 192 187 186 101 130 68 137 176 103 176 51 46 45 188 135 101 200 108 85 173 209 153 188 165 125 141 160 113 188 92 95 146 102 70 93 64 87 162 113 112 96 109 158 126 107 143 98 84 162 143 82 91 60 102 122 115 60 89
141 22 23 27 55 13 17 17 14 18 18 26 22 26 18 69 60 27 30 108 40 24 37 119 101 37 124 28 37 32 63 66 66 28 27 32 23 41 71 55 72 47 73 101 90 103 111 237 218 122 214 87 108 31 40 50 135 47 28 40 32 53 45 63 61 56 40 103 171 245 154 128 95 103 106 123 213 89 144 100 48 61 43 60 55 170 157 155 150 192 94 39 166 146 139 129 185 137 141 175 117 94 152 115 33 95 153 64 175 100 147 91 117 28 82 62 139 132 120 144 74 143 164 85 106 153 54 54
141 22 35 25 7 11 14 13 22 15 20 20 28 40 31 32 39 69 64 28 27 19 28 33 33 30 26 18 36 53 55 65 35 39 41 43 35 44 70 60 54 120 73 137 158 217 168 86 159 111 155 102 115 44 47 50 34 31 62 53 84 41 51 60 34 54 137 158 84 173 169 103 150 153 107 104 91 95 219 154 98 72 92 54 82 45 94 143 51 57 75 116 165 163 74 57 61 28 37 131 130 122 130 131 149 128 46 87 145 69 158 84 175 101 133 130 102 102 82 139 90 91 151 89 51 117 58 98
124 24 12 24 13 13 15 16 14 20 26 28 19 66 61 72 47 48 50 31 32 38 31 33 38 28 33 61 55 61 68 48 37 47 41 50 78 93 77 134 126 150 182 125 148 103 148 99 135 82 102 63 42 36 31 32 29 33 35 37 33 40 39 40 54 73 37 41 174 110 91 189 196 144 64 48 123 121 106 132 135 142 80 156 97 68 134 67 39 25 95 69 47 38 69 42 59 62 119 46 176 155 39 66 127 86 47 141 72 86 113 77 162 92 156 101 140 120 40 75 108 151 190 117 157 70 126 119
163 23 28 12 17 17 22 20 14 45 51 59 40 51 82 44 54 61 71 37 30 35 38 36 38 55 50 65 53 51 76 34 61 11 124 94 69 126 86 150 189 202 179 86 91 87 116 102 87 45 40 56 18 35 31 30 24 50 43 41 57 40 38 49 49 93 41 49 80 27 72 91 190 182 157 200 39 71 197 91 75 191 111 183 219 85 118 58 106 50 39 57 91 56 74 58 92 110 145 74 107 84 94 109 120 30 32 33 41 135 131 141 98 159 132 143 121 72 37 86 42 56 95 39 39 60 108 180
115 11 29 39 27 40 18 54 48 83 70 64 68 92 40 43 71 66 6 28 56 145 91 30 113 148 43 182 72 83 100 162 18 85 145 118 151 192 118 167 121 102 168 146 148 55 68 40 42 34 42 36 27 26 38 28 24 32 32 27 51 18 23 37 66 39 41 29 38 23 248 139 90 6 70 113 103 86 20 130 174 186 101 30 76 87 172 146 170 123 176 202 69 78 170 56 177 150 116 116 90 157 104 63 61 73 82 45 24 62 47 57 97 101 88 63 55 41 62 38 52 65 78 87 64 54 126 139
50 40 43 21 19 96 60 26 104 54 44 44 44 64 40 48 160 55 49 140 164 169 108 89 54 104 136 61 65 42 42 68 26 33 59 82 177 50 55 72 62 90 63 115 76 122 54 65 28 29 37 33 31 21 13 25 18 52 34 42 21 53 40 22 21 63 41 69 52 49 44 66 29 39 45 44 176 157 180 122 154 76 154 35 102 27 78 72 151 109 170 121 102 116 80 148 88 60 109 162 81 98 70 103 73 53 76 78 47 106 50 51 16 98 56 33 28 65 36 48 62 46 38 32 57 32 51 58
41 6 37 61 116 90 37 93 55 46 42 124 180 134 77 147 158 142 77 70 65 230 235 119 123 154 106 144 87 111 47 90 116 104 80 151 186 121 61 91 102 106 61 35 36 31 16 30 20 23 31 29 26 29 22 39 44 49 34 56 22 39 18 43 44 12 35 39 29 81 39 33 26 78 73 122 61 51 28 132 194 83 120 94 58 58 146 190 17 36 73 139 127 93 113 61 53 68 61 182 127 84 96 74 68 84 111 56 78 50 33 124 85 61 68 73 51 60 73 44 64 77 52 53 55 48 45 72
48 25 11 70 72 46 37 59 98 50 14 68 164 41 50 133 59 63 44 60 135 106 162 78 130 182 110 53 172 194 113 91 139 120 108 155 95 111 34 44 67 80 48 45 52 34 13 31 39 30 53 27 26 29 32 38 63 36 33 32 24 18 11 23 22 51 59 27 68 50 35 16 43 17 141 168 117 56 64 17 52 112 72 84 57 155 168 112 49 13 25 42 21 43 72 61 26 45 43 46 99 124 128 76 94 92 79 71 58 76 71 120 144 108 215 37 42 51 56 42 84 24 22 68 69 56 39 22
52 66 20 118 41 82 187 151 184 68 68 158 63 72 96 77 56 88 80 150 108 122 79 65 77 79 86 89 70 75 81 103 71 91 89 63 57 84 37 62 51 55 28 49 47 21 37 28 19 24 26 31 13 16 22 21 26 29 22 35 39 20 31 21 32 44 48 49 66 53 46 34 35 85 79 70 142 131 51 86 45 71 54 31 60 164 85 129 78 32 18 16 19 26 22 33 165 72 69 42 112 76 180 61 141 68 76 83 112 72 87 76 138 82 23 56 12 25 43 65 65 86 75 40 61 67 43 44
70 33 144 67 169 61 110 147 108 71 178 142 54 47 30 42 60 73 77 72 82 86 64 85 95 64 87 171 96 83 100 76 64 66 31 43 43 57 63 46 23 17 23 30 17 21 15 13 35 38 30 25 29 18 17 21 17 12 30 12 37 38 40 20 16 37 40 11 29 60 30 39 75 58 102 105 177 177 65 149 174 44 48 20 12 67 15 32 14 83 78 28 7 16 51 126 81 15 15 8 15 63 227 109 105 149 118 99 121 164 93 154 130 77 102 119 88 67 53 107 61 68 68 47 20 28 51 86
71 180 230 115 200 98 70 117 55 103 42 47 61 137 77 31 76 70 224 125 89 125 89 80 114 65 30 68 35 27 43 38 25 29 31 28 26 28 31 29 27 21 14 22 19 24 22 12 7 15 8 16 20 6 30 32 15 12 12 38 2 13 7 31 16 39 37 18 19 27 52 20 48 66 186 168 179 192 208 196 61 162 52 8 30 13 47 36 161 25 17 118 39 180 191 196 61 91 129 101 38 55 126 74 17 22 45 78 54 74 126 101 105 65 42 68 67 154 73 63 60 62 54 54 80 129 76 138
44 205 159 171 48 71 79 55 43 49 66 73 63 61 27 54 102 87 93 82 102 84 69 67 65 56 117 41 26 19 18 15 24 39 17 41 33 24 17 14 21 10 22 22 19 1 19 19 13 1 14 51 26 23 26 23 13 14 13 16 14 39 37 7 8 54 38 44 21 30 2 31 90 54 146 19 45 197 87 131 125 124 73 50 21 36 41 99 117 62 148 40 15 184 45 114 48 73 84 152 54 30 31 33 51 32 90 99 65 41 128 5 58 64 72 44 54 63 39 114 90 72 85 177 89 60 98 43
82 91 55 88 36 34 27 9 5 14 31 35 42 52 99 245 194 36 69 95 107 65 79 59 60 59 28 35 20 21 21 20 21 21 16 23 25 16 15 16 19 22 16 20 10 16 33 19 26 27 32 3 29 14 1 27 12 1 11 15 1 28 17 33 30 15 14 62 24 15 40 47 57 48 46 28 41 47 128 78 42 103 67 80 11 44 22 31 10 92 146 83 141 54 64 109 8 24 29 126 28 187 52 182 116 96 92 17 147 75 42 23 21 68 109 71 66 67 86 44 33 172 67 54 40 50 50 72
122 42 55 61 38 22 43 25 16 17 18 16 17 47 90 230 80 75 54 189 100 40 57 36 88 70 172 20 13 21 19 22 13 17 15 18 16 11 19 15 15 12 11 21 21 37 14 36 27 21 38 19 12 22 19 30 1 29 39 2 12 16 7 2 19 63 51 7 52 65 26 14 38 57 45 43 32 18 15 105 194 50 30 76 15 36 9 21 204 64 64 106 21 60 77 50 43 192 62 90 103 32 32 23 54 35 64 23 136 75 36 34 75 105 32 36 73 103 132 100 82 90 80 45 23 24 41 42
68 59 40 68 41 26 31 11 25 20 21 12 48 112 91 157 67 67 72 75 27 74 23 107 45 20 29 19 18 16 17 11 9 14 19 21 12 12 5 35 9 18 12 5 21 7 42 42 33 34 23 17 41 58 17 56 23 4 7 50 24 29 47 10 33 22 3 62 38 30 32 18 70 22 42 80 50 62 39 79 46 50 58 50 16 35 72 35 5 28 55 57 68 47 63 110 82 16 8 142 135 44 37 42 5 24 54 51 45 45 39 47 44 34 15 86 54 27 31 10 37 63 49 55 65 95 76 73
67 59 118 71 49 37 45 50 42 44 48 66 73 220 125 49 59 48 95 56 72 36 3 31 12 28 22 29 10 13 8 12 9 15 11 8 22 14 17 14 22 9 13 13 10 23 14 11 15 23 22 19 1 34 20 18 18 15 35 54 18 22 2 7 26 24 47 24 35 41 64 21 73 58 41 29 24 34 59 85 33 97 20 42 39 174 30 65 18 17 3 5 78 96 87 91 64 59 55 120 13 33 49 93 135 77 140 10 43 144 96 3 154 12 72 137 42 156 5 16 36 20 14 127 40 29 70 59
10 53 35 19 58 103 62 40 55 45 67 176 147 65 79 93 58 48 19 55 18 36 42 57 56 8 31 18 14 18 15 7 10 14 5 5 14 15 10 16 6 7 9 30 18 34 22 25 14 32 8 18 50 47 22 23 26 16 22 11 13 25 14 32 51 37 39 62 27 70 23 62 12 13 10 1 13 26 51 79 88 24 11 114 18 62 94 51 17 3 18 91 61 77 6 72 36 160 76 142 54 80 241 135 81 34 183 24 100 60 98 59 143 127 30 34 86 87 116 132 42 15 15 16 8 75 58 74
9 68 58 46 41 38 103 46 39 65 129 52 105 94 85 149 56 22 21 35 22 19 16 46 9 33 26 19 30 14 18 16 12 6 13 15 0 4 14 13 12 8 13 3 12 13 15 21 8 24 44 27 15 17 16 21 14 25 60 18 49 39 9 39 22 35 38 21 8 29 27 30 29 21 30 11 45 39 78 19 32 26 4 43 74 33 67 99 22 22 24 8 6 60 51 72 22 17 80 24 87 94 82 138 7 13 113 31 115 7 14 5 12 23 17 114 88 92 109 5 129 96 43 61 2 57 7 7
36 56 46 42 116 82 47 118 82 79 98 64 104 27 39 66 22 8 10 9 15 15 21 21 100 27 15 12 32 9 14 38 10 5 8 0 13 12 7 21 5 5 13 54 15 23 16 18 13 15 21 26 11 13 17 17 16 16 33 9 14 11 12 22 54 37 24 15 28 72 47 33 2 44 14 32 31 49 26 26 32 66 43 185 221 64 11 3 28 24 48 24 14 10 53 37 6 8 58 105 177 41 91 122 85 142 112 95 121 18 33 72 62 66 22 184 5 13 50 34 170 109 139 33 24 50 23 28
12 76 52 57 81 60 128 69 87 81 25 37 109 47 148 42 10 13 13 14 4 14 10 31 12 24 35 15 21 11 11 13 11 16 14 11 9 12 4 4 21 27 14 13 17 9 16 37 38 8 21 32 13 36 44 29 1 23 3 20 30 17 51 18 48 31 28 11 41 6 8 44 11 40 26 16 77 35 36 61 17 68 35 38 18 10 2 8 64 72 3 49 102 18 14 79 51 21 17 66 50 74 80 206 64 126 134 120 30 32 35 111 73 47 6 85 179 54 11 22 67 13 10 5 118 22 10 19
56 165 49 30 25 17 37 39 55 53 9 14 17 48 48 42 13 11 8 1 0 71 38 30 30 71 5 47 16 10 26 10 9 25 16 20 11 7 14 12 17 24 26 22 14 21 3 8 23 8 16 6 30 20 2 4 36 8 9 35 43 14 18 45 27 21 20 4 11 51 74 35 62 15 15 52 8 2 28 17 61 18 18 26 20 32 33 31 7 58 98 93 30 11 44 10 7 10 22 53 31 65 61 197 142 77 116 62 45 43 186 69 85 4 67 125 90 27 65 105 72 9 89 96 89 56 24 32
60 10 44 18 19 39 46 29 36 54 15 27 22 38 30 16 24 15 15 18 15 68 24 16 9 13 11 27 46 3 48 23 19 7 18 44 15 26 8 8 19 17 4 13 23 16 32 13 22 11 1 23 8 7 15 7 17 25 38 58 26 4 14 14 30 50 47 12 2 29 37 47 41 3 23 27 7 84 32 31 50 27 15 26 11 34 21 23 46 64 111 100 124 81 143 20 2 59 20 22 21 85 134 94 66 22 100 165 86 57 144 28 117 25 16 9 49 2 10 36 113 31 40 22 3 143 5 40
2 11 38 30 23 42 35 22 35 36 24 20 10 15 25 4 9 0 15 13 6 2 29 22 11 2 5 24 9 21 28 21 37 24 13 8 11 10 6 7 8 4 2 27 27 18 19 18 30 1 30 12 8 11 12 7 6 18 8 40 23 9 16 1 8 87 44 12 11 29 24 31 12 63 38 27 45 33 27 32 33 16 34 62 35 30 13 33 47 24 20 148 14 15 54 11 3 1 8 38 22 14 20 10 20 70 28 52 38 19 26 52 82 84 121 6 23 93 145 8 79 57 41 73 187 10 1 20
15 13 11 30 11 16 23 19 23 55 7 5 11 6 12 84 8 8 18 15 1 6 11 3 9 14 13 11 18 6 34 18 23 26 9 4 13 10 25 4 1 10 21 36 27 18 39 17 39 49 43 34 36 9 23 27 8 3 6 29 12 21 54 24 21 36 15 124 31 61 40 82 30 28 2 20 88 72 106 14 8 36 79 22 37 20 57 15 65 28 204 71 21 10 55 1 2 18 11 14 47 10 9 10 33 11 31 38 44 132 154 95 114 92 6 58 8 75 109 88 21 167 38 90 148 86 163 2
46 1 9 13 11 48 28 19 18 9 17 19 21 21 21 21 37 11 20 72 25 28 35 10 6 19 14 14 22 15 5 27 12 14 9 7 8 22 6 13 15 12 6 3 17 49 37 26 24 15 29 41 38 17 1 16 23 6 42 13 2 50 40 29 15 18 19 2 42 15 77 31 14 16 21 26 39 7 30 31 26 4 43 19 17 15 61 170 47 24 93 93 28 88 14 18 16 30 22 1 5 36 18 8 8 11 7 9 21 111 115 70 128 78 2 17 98 28 9 70 38 68 33 39 109 32 31 45
135 15 16 85 9 6 11 34 8 62 0 16 6 17 97 8 24 8 11 15 36 5 22 131 15 12 16 30 17 14 8 11 19 9 12 11 5 15 7 10 4 6 19 18 24 23 18 14 29 9 18 13 13 10 25 24 21 33 8 15 3 12 20 3 13 3 21 15 23 69 27 26 24 18 27 4 34 24 48 1 22 32 20 42 18 49 9 129 60 142 61 180 73 65 36 4 13 41 21 102 26 11 12 2 12 12 0 10 23 41 112 182 2 5 23 53 21 40 8 136 117 6 12 52 106 33 84 22
40 1 18 11 12 16 38 40 52 30 21 10 14 7 10 81 36 27 1 12 17 20 14 26 18 1 2 21 12 20 7 1 21 12 14 5 13 7 6 27 22 8 25 30 1 14 30 9 7 8 5 20 12 5 18 8 28 35 63 42 20 10 5 3 35 11 11 47 66 35 30 7 82 20 20 17 2 10 36 17 17 23 30 24 18 80 59 57 99 133 77 44 35 124 37 232 9 74 7 39 37 62 50 44 14 45 34 16 9 36 8 127 76 116 3 26 57 5 63 10 203 106 35 8 26 58 121 63
